<?xml version="1.0" encoding="UTF-8" standalone="no"?>
<!-- Created with Inkscape (http://www.inkscape.org/) -->

<svg
   version="1.1"
   id="svg1"
   width="591.10596"
   height="437.90646"
   viewBox="0 0 591.10596 437.90646"
   xmlns="http://www.w3.org/2000/svg"
   xmlns:svg="http://www.w3.org/2000/svg">
  <defs
     id="defs1" />
  <g
     id="g1"
     transform="translate(-91.949932,-184.95219)">
    <g
       id="g2">
      <path
         style="fill:#fbbb44"
         d="m 189.12,613.61252 c -1.86656,-0.10327 -1.48629,0.0557 -5.48285,-2.29236 l -1.88285,-1.10622 -2.28804,-2.98697 c -4.95851,-6.47318 -4.43534,-5.60368 -8.3485,-13.87509 -15.10479,-31.92763 -25.88547,-62.59157 -32.4827,-92.39188 -5.37921,-24.29841 -8.38904,-48.19462 -9.69344,-76.96 l -0.18501,-4.08 0.75421,-2.72 c 1.41055,-5.087 1.15887,-4.54525 3.27127,-7.04147 1.04187,-1.23119 2.03013,-2.35127 2.19611,-2.48906 0.51128,-0.42443 5.28486,-3.34201 5.86377,-3.58389 0.30028,-0.12547 2.51969,-0.7397 4.932,-1.36496 l 4.38603,-1.13683 6,-0.46931 c 3.3,-0.25812 8.484,-0.61601 11.52,-0.79531 3.036,-0.17931 7.284,-0.43118 9.44,-0.55972 6.38369,-0.3806 19.97591,-0.92057 23.68,-0.94073 3.35053,-0.0182 3.569,0.001 8.4,0.74327 2.728,0.41909 5.464,0.87397 6.08,1.01085 1.4278,0.31725 3.12306,0.99593 5.00515,2.00374 2.24202,1.20054 2.17932,1.18831 2.87761,0.56151 0.81105,-0.728 5.64494,-3.27126 6.57105,-3.45723 0.4104,-0.0824 2.37224,-0.44032 4.35963,-0.79535 l 3.61345,-0.64551 7.26655,0.0137 c 3.99661,0.008 9.42656,0.0686 12.06656,0.13573 l 4.8,0.12201 4.16,0.83594 c 3.00482,0.60381 4.34563,0.94377 4.82849,1.22427 0.81355,0.47259 1.15705,0.48384 1.9785,0.0648 0.44897,-0.22905 1.91578,-0.50794 5.02137,-0.95476 l 4.38713,-0.63119 3.97226,0.15269 c 2.18474,0.084 6.52825,0.2676 9.65225,0.40805 l 5.68,0.25536 4.14739,0.94834 c 2.89738,0.66251 4.36819,1.07514 4.88,1.36906 0.40293,0.23141 1.02949,0.59173 1.39234,0.80073 l 0.65974,0.37999 1.34026,-0.64063 c 1.29664,-0.61979 1.47238,-0.65738 5.3988,-1.15502 l 4.05853,-0.51437 4.82147,0.2801 c 2.65181,0.15406 7.46941,0.45669 10.70577,0.67251 l 5.8843,0.3924 3.8757,0.96965 c 2.6623,0.66607 4.13924,1.11769 4.71745,1.44251 l 0.84176,0.47286 0.66247,-0.33796 c 0.50633,-0.25832 1.57119,-0.44688 4.51824,-0.8001 l 3.85578,-0.46214 6.64,0.48075 c 3.652,0.26442 8.62,0.62483 11.04,0.80093 2.42,0.17609 8.36612,0.60495 13.21361,0.95302 4.84748,0.34807 9.20348,0.71498 9.68,0.81537 0.47651,0.10039 2.77439,0.68251 5.10639,1.2936 4.99823,1.30976 5.88014,1.69484 9.76,4.26163 2.12764,1.40757 2.92978,2.04882 4.13314,3.3041 l 1.49314,1.55757 1.46686,-1.50076 c 1.31778,-1.34823 1.72971,-1.65031 4.05307,-2.97224 1.42241,-0.80931 3.11441,-1.64711 3.76,-1.86177 1.00256,-0.33335 3.09324,-0.6902 9.17379,-1.56582 0.81112,-0.1168 2.55408,-0.0913 6.32,0.0925 6.87985,0.3358 17.1645,0.69498 25.82441,0.9019 l 7.02442,0.16783 3.35026,0.71143 c 2.26699,0.4814 3.59797,0.84625 4.11638,1.12841 l 0.76613,0.41698 0.6192,-0.40742 c 0.35217,-0.23171 1.24019,-0.54527 2.0592,-0.7271 0.792,-0.17582 2.196,-0.50393 3.12,-0.72911 1.42214,-0.34659 2.17117,-0.42166 4.88,-0.48906 1.76,-0.0438 5.864,-0.15768 9.12,-0.25309 l 5.92,-0.17346 3.34015,0.57785 3.34015,0.57785 2.13348,1.20427 c 1.96485,1.10908 2.25728,1.33726 3.69985,2.88702 l 1.56637,1.68275 1.31941,3.0445 c 1.22703,2.83136 1.34733,3.2087 1.71835,5.38977 0.61541,3.61786 2.49248,12.65692 3.84177,18.50015 4.52208,19.5833 11.29663,41.08739 19.13057,60.72512 2.57522,6.45544 3.86613,9.52531 4.07498,9.69056 0.14385,0.11382 0.63132,0.12732 1.46524,0.0406 2.31998,-0.2413 5.56839,-0.7965 5.75987,-0.98445 0.1464,-0.14371 -0.1709,-1.05226 -1.37834,-3.94669 -0.86269,-2.068 -1.87492,-4.444 -2.24939,-5.28 -0.37447,-0.836 -1.27516,-3.068 -2.00153,-4.96 -0.72637,-1.892 -1.73259,-4.448 -2.23603,-5.68 -0.50345,-1.232 -1.48795,-3.86 -2.18779,-5.84 -0.69984,-1.98 -1.6222,-4.536 -2.04969,-5.68 -1.00039,-2.67714 -4.23597,-12.52623 -5.2037,-15.84 -0.41118,-1.408 -1.10078,-3.712 -1.53244,-5.12 -1.9688,-6.42186 -5.35925,-19.94245 -7.02134,-28 -0.43566,-2.112 -0.90727,-4.38 -1.04803,-5.04 -0.14076,-0.66 -0.42471,-2.172 -0.63101,-3.36 -0.36522,-2.10321 -0.36967,-2.24256 -0.16931,-5.30002 0.11577,-1.76668 0.2923,-3.30621 0.40361,-3.52 1.47728,-2.83733 1.98694,-3.53724 3.63608,-4.99346 l 1.66079,-1.46652 3.11509,-1.14907 3.11509,-1.14906 3.79387,-0.50019 c 2.08664,-0.27511 5.95388,-0.84975 8.59388,-1.27697 3.07722,-0.49798 5.08713,-0.75062 5.6,-0.70388 0.44,0.0401 1.952,0.12906 3.36,0.1977 l 2.56,0.12479 1.96231,0.89878 c 1.78801,0.81895 2.1088,1.035 3.61143,2.43231 l 1.64912,1.53353 1.38297,2.91603 c 1.24451,2.62407 1.43136,3.14378 1.86626,5.19076 0.83571,3.93359 2.84774,11.77295 4.34398,16.92527 5.11512,17.61393 12.06179,34.74376 20.82806,51.36 3.43456,6.51012 7.50607,13.58142 7.86076,13.65238 0.144,0.0288 1.93431,-0.70205 3.97846,-1.62413 3.67769,-1.65893 3.75774,-1.68609 7.63665,-2.591 l 3.92,-0.91449 2.72,0.0874 c 2.70843,0.087 2.73063,0.0908 5.21788,0.87551 2.83429,0.89424 2.60102,0.78423 3.98212,1.87796 0.572,0.45298 1.77588,1.31304 2.67529,1.91125 1.54147,1.02525 1.77047,1.25398 3.99115,3.98639 1.29573,1.5943 2.9412,3.51073 3.65661,4.25873 0.71542,0.748 2.5647,2.764 4.10952,4.48 1.54483,1.716 4.94107,5.23635 7.5472,7.82299 l 4.73843,4.703 1.66306,3.057 1.66306,3.05701 0.0971,2.80767 0.0971,2.80768 -0.85627,2.55822 c -0.47096,1.40702 -0.95662,2.74598 -1.07926,2.97546 -0.12264,0.22948 -1.02395,1.30682 -2.00291,2.3941 -0.97897,1.08728 -2.27497,2.56174 -2.88,3.27658 -0.7935,0.93749 -1.54597,1.60203 -2.70007,2.38451 -0.88,0.59665 -2.644,1.8217 -3.92,2.72234 -1.276,0.90065 -2.968,2.01724 -3.76,2.48132 -0.792,0.46408 -2.484,1.50353 -3.76,2.3099 -1.276,0.80637 -3.112,1.88662 -4.08,2.40056 -0.968,0.51393 -2.732,1.48064 -3.92,2.14823 -1.188,0.66759 -2.844,1.53233 -3.68,1.92165 -0.836,0.38931 -2.65549,1.2724 -4.04331,1.96241 -1.38782,0.69001 -3.22382,1.53403 -4.08,1.87559 -0.85618,0.34156 -2.56469,1.06793 -3.79669,1.61414 -1.232,0.54622 -3.104,1.30183 -4.16,1.67914 -1.056,0.37731 -2.99794,1.09625 -4.31542,1.59764 l -2.39541,0.91163 -4.48459,0.47323 c -2.46652,0.26028 -4.78369,0.43613 -5.14927,0.39077 -0.45784,-0.0568 -0.72253,-0.0128 -0.85054,0.14148 -0.16496,0.19877 -4.97733,2.89743 -6.64477,3.72624 -0.64084,0.31853 -5.7728,1.5525 -8.48,2.03901 -0.792,0.14232 -2.736,0.50299 -4.32,0.80147 -2.87754,0.54222 -11.00397,1.72942 -13.12,1.9167 -0.616,0.0545 -2.776,0.27511 -4.8,0.49019 -6.06334,0.64433 -9.28347,0.85927 -15.84018,1.05728 l -6.24019,0.18846 -2.79981,-0.43691 c -4.06684,-0.63463 -6.46425,-1.16287 -7.37711,-1.62545 -1.42876,-0.72401 -1.52397,-0.73954 -2.0175,-0.32907 -0.74287,0.61786 -0.9611,0.68386 -4.84906,1.46656 l -3.75615,0.75617 -2.72,-0.0975 c -3.52578,-0.12634 -16.67373,-1.00497 -19.36,-1.29375 -1.63341,-0.1756 -2.95563,-0.46892 -6.15826,-1.36613 l -4.07826,-1.14252 -3.44174,0.34517 c -2.10111,0.21072 -3.878,0.30854 -4.56174,0.25114 -1.56058,-0.13102 -13.81565,-1.72825 -19.12,-2.49196 -3.13565,-0.45147 -4.81379,-0.77111 -5.84,-1.11238 -0.792,-0.26337 -2.88,-0.94087 -4.64,-1.50554 -3.19392,-1.02472 -3.20577,-1.03025 -6.24,-2.91202 -1.93033,-1.19716 -3.51392,-2.31501 -4.33834,-3.0624 -0.71409,-0.64738 -1.37356,-1.17705 -1.46548,-1.17705 -0.0919,0 -1.18398,0.54779 -2.42677,1.21731 -1.2428,0.66953 -2.61482,1.35228 -3.04895,1.51723 -1.11751,0.42462 -3.72254,0.61936 -8.80046,0.65786 l -4.4,0.0334 -4.4,-0.75939 c -2.42,-0.41766 -6.056,-1.01151 -8.08,-1.31965 -2.024,-0.30815 -5.588,-0.87862 -7.92,-1.26771 -2.332,-0.38909 -6.472,-1.03091 -9.2,-1.42627 -2.728,-0.39535 -6.868,-1.00973 -9.2,-1.36529 -2.332,-0.35555 -4.80155,-0.71736 -5.48788,-0.80403 -1.87232,-0.23641 -9.90421,-2.63816 -11.04069,-3.30147 -1.08033,-0.63052 -1.27712,-0.65056 -2.21396,-0.22546 -0.43519,0.19747 -1.05847,0.31959 -1.65747,0.32475 -0.528,0.005 -2.004,0.11199 -3.28,0.23876 -3.25669,0.32355 -4.03151,0.30265 -9.23095,-0.24907 -2.53498,-0.26899 -6.62505,-0.62491 -9.08905,-0.79093 -4.47736,-0.30168 -4.4824,-0.30243 -8.56,-1.27825 -3.66958,-0.87818 -4.27833,-1.07223 -6.05165,-1.92907 -1.08441,-0.52398 -2.07219,-0.95268 -2.19505,-0.95268 -0.12287,0 -0.77722,0.36154 -1.45412,0.80342 -0.67689,0.44188 -1.38112,0.8386 -1.56495,0.8816 -0.18382,0.043 -1.88223,0.35895 -3.77423,0.70209 -3.17087,0.57509 -3.74668,0.63187 -7.36,0.72568 -5.18043,0.13451 -13.48088,0.51471 -16.08,0.73655 -1.8668,0.15934 -2.49,0.13651 -6.08,-0.22266 -3.04783,-0.30493 -4.22062,-0.48542 -4.92679,-0.75824 l -0.92679,-0.35805 -0.52714,0.51092 c -0.35502,0.34411 -1.20169,0.77342 -2.5932,1.31492 -1.13635,0.44219 -2.82208,1.12047 -3.74608,1.50727 -1.22804,0.51407 -2.3687,0.83727 -4.24,1.20137 -3.48612,0.6783 -10.20028,2.34598 -14.08365,3.49813 -2.61709,0.77646 -3.56915,0.98415 -5.2,1.13438 -1.09799,0.10114 -2.86998,0.28378 -3.93776,0.40587 l -1.94141,0.22197 -2.77859,-0.80872 -2.77859,-0.80872 -2.1706,-1.50228 c -1.19382,-0.82625 -2.32175,-1.665 -2.5065,-1.86389 -0.18475,-0.19888 -1.3092,-1.86153 -2.49878,-3.69478 l -2.16286,-3.33316 -2.40195,-7.22684 c -1.32108,-3.97475 -2.91448,-8.99083 -3.5409,-11.14683 -0.62642,-2.156 -1.28138,-4.406 -1.45546,-5 -0.17407,-0.594 -0.39357,-1.08 -0.48777,-1.08 -0.0942,0 -0.60185,0.32368 -1.12812,0.71929 -0.52628,0.3956 -1.72416,1.12871 -2.66196,1.62912 -0.93781,0.50041 -2.7851,1.5555 -4.1051,2.34466 -2.62748,1.57082 -4.1725,2.32676 -6.45934,3.16038 -0.82464,0.3006 -1.53335,0.63395 -1.57491,0.74078 -0.12617,0.32433 1.79057,6.13715 4.44685,13.48577 1.3837,3.828 2.72985,7.5 2.99145,8.16 0.26161,0.66 0.59511,1.92 0.74111,2.8 0.14601,0.88 0.52053,2.932 0.83226,4.56 l 0.56679,2.96 -0.38967,3.44 -0.38967,3.44 -1.0939,3.02713 -1.0939,3.02713 -2.00854,2.57533 c -1.10469,1.41643 -2.29481,2.99448 -2.64471,3.50678 -0.39048,0.57173 -1.37916,1.55888 -2.56,2.55606 -2.96784,2.50624 -7.63976,7.0342 -11.17181,10.82757 l -3.20302,3.44 -3.37025,2.12 -3.37025,2.12 -1.28425,-0.0273 c -0.70633,-0.015 -2.04024,-0.0691 -2.96424,-0.12022 z m 1.68,-27.45731 c 3.13508,-2.76427 11.21453,-8.86844 15.08,-11.3932 0.87152,-0.56925 1.32,-0.96333 1.32,-1.1599 0,-0.16375 -0.39366,-1.23275 -0.8748,-2.37556 -5.23433,-12.43256 -11.39407,-29.72886 -14.26088,-40.04396 -0.10316,-0.37117 0.14091,-0.52027 2.01568,-1.23137 2.54525,-0.96541 15.60757,-5.23798 18.22121,-5.96 5.05445,-1.39629 7.54606,-3.19812 9.5937,-6.93778 1.63374,-2.98372 2.13136,-5.40153 2.1597,-10.49344 0.0195,-3.49399 -0.14046,-5.46628 -0.70704,-8.72 -1.33365,-7.65892 -2.97977,-20.87368 -3.81671,-30.64 -0.57188,-6.67325 -1.41005,-22.38949 -1.61274,-30.24 -0.18508,-7.16802 -0.65786,-10.38616 -2.05674,-14 -1.46135,-3.77519 -4.23651,-6.73563 -7.54138,-8.04488 -3.34768,-1.3262 -5.12801,-1.34789 -22.32,-0.27188 -13.58334,0.85016 -34.6541,2.58882 -35.15956,2.90121 -0.11045,0.0683 -0.12987,1.27048 -0.0588,3.63875 0.9652,32.15578 3.8699,57.00604 9.76445,83.5368 1.15183,5.18429 4.0985,16.79767 4.95281,19.52 0.22092,0.704 0.95283,3.152 1.62647,5.44 2.99443,10.17061 7.63125,23.44182 12.07653,34.56467 2.9372,7.34936 9.40315,22.23407 9.95372,22.91357 0.20142,0.24858 0.27752,0.20216 1.64437,-1.00303 z m -7.51805,-92.39205 c -0.21497,-0.34783 -1.74163,-9.67897 -2.55874,-15.63936 -0.98235,-7.1657 -2.4423,-21.61487 -2.73879,-27.10591 -0.10231,-1.89472 -0.0901,-2.02812 0.19319,-2.11744 0.3543,-0.1117 10.10064,-1.27443 13.04316,-1.55605 1.11142,-0.10637 2.1271,-0.15259 2.25706,-0.10272 0.26656,0.10229 0.24054,-0.18354 0.84822,9.31832 0.38407,6.00541 1.16133,14.31671 1.84045,19.68 0.64831,5.12003 1.29287,9.80103 1.59972,11.61777 0.33377,1.97611 0.38832,2.79735 0.19378,2.91739 -0.066,0.0407 -2.136,0.48363 -4.6,0.98421 -2.464,0.50059 -5.65558,1.19152 -7.0924,1.5354 -2.90625,0.69556 -2.85064,0.68683 -2.98565,0.46839 z M 549.68,567.60234 c 2.64,-0.0495 6.456,-0.23224 8.48,-0.40612 2.024,-0.17388 5.876,-0.49838 8.56,-0.72113 2.93094,-0.24324 6.79711,-0.69284 9.68,-1.12569 2.64,-0.39638 6.24,-0.93826 8,-1.20418 4.83964,-0.73122 8.94634,-1.60728 9.00575,-1.92115 0.0266,-0.14076 -0.30599,-0.86076 -0.73918,-1.6 -1.88162,-3.21098 -7.63861,-13.75503 -8.98929,-16.46407 -0.8117,-1.628 -2.0806,-4.0549 -2.8198,-5.39311 -0.7392,-1.33821 -2.13806,-4.11021 -3.10859,-6.16 -0.97053,-2.04979 -1.87241,-3.80927 -2.00418,-3.90997 -0.13177,-0.10069 -0.36224,-0.15708 -0.51215,-0.12531 -2.33077,0.49396 -6.41815,1.11895 -9.87256,1.50957 -2.376,0.26868 -5.796,0.66584 -7.6,0.88258 -3.64532,0.43797 -7.46323,0.72798 -7.81361,0.59353 -0.29111,-0.11171 -1.32225,-2.33612 -2.48662,-5.36418 -0.50057,-1.30179 -1.60243,-4.03779 -2.44857,-6.08 -0.84615,-2.04221 -1.84453,-4.57787 -2.21862,-5.6348 -0.3741,-1.05693 -1.3449,-3.64893 -2.15734,-5.76 -0.81244,-2.11107 -1.85345,-4.95431 -2.31336,-6.31831 -0.4599,-1.364 -1.41737,-4.136 -2.1277,-6.16 -2.25142,-6.41515 -5.39853,-16.48381 -7.72658,-24.72 -1.93461,-6.84422 -5.25481,-20.0655 -6.14757,-24.48 -0.22245,-1.1 -0.72457,-3.476 -1.11581,-5.28 -0.83161,-3.83453 -2.35008,-11.84596 -2.89474,-15.27266 -0.20917,-1.31596 -0.42011,-2.49638 -0.46876,-2.62316 -0.0735,-0.19144 -0.42,-0.21262 -2.04459,-0.12498 -1.07587,0.0581 -5.08319,0.17753 -8.90515,0.26552 -3.82196,0.088 -6.98593,0.19689 -7.03103,0.242 -0.0451,0.0451 0.01,0.81805 0.12203,1.71765 0.19743,1.5827 2.19536,13.71003 2.33866,14.19563 0.039,0.132 0.4654,2.328 0.94765,4.88 2.02829,10.73343 6.32658,29.04239 8.90226,37.92 0.25531,0.88 0.97309,3.4 1.59504,5.6 0.62196,2.2 1.66545,5.692 2.31886,7.76 0.65341,2.068 1.61365,5.128 2.13386,6.8 1.08843,3.49828 4.77322,14.45287 5.30118,15.76 0.1955,0.484 1.07057,2.896 1.94461,5.36 0.87405,2.464 1.94452,5.35384 2.37883,6.42186 0.43432,1.06803 1.46637,3.73203 2.29345,5.92 0.82709,2.18798 2.02356,5.20214 2.65883,6.69814 0.63527,1.496 1.78926,4.304 2.56443,6.24 0.77517,1.936 1.82184,4.42 2.32594,5.52 0.5041,1.1 1.74327,3.944 2.75371,6.32 2.7562,6.48104 2.78502,6.52856 3.88071,6.3987 0.308,-0.0365 2.72,-0.10687 5.36,-0.15636 z m -26.83008,-0.0604 c 0.16336,-0.1036 0.0166,-0.591 -0.66163,-2.19755 -0.47935,-1.13544 -1.95338,-4.80043 -3.27562,-8.14443 -16.6392,-42.08121 -28.00118,-83.44983 -34.10084,-124.16 -0.43511,-2.904 -0.8821,-6.01893 -0.99331,-6.92207 -0.1112,-0.90313 -0.24839,-1.71682 -0.30486,-1.80819 -0.0663,-0.10721 -3.33164,-0.24754 -9.20817,-0.39571 -5.00802,-0.12628 -12.45349,-0.37754 -16.54549,-0.55838 -12.36173,-0.54628 -13.35216,-0.56291 -14.76783,-0.24795 -3.43896,0.76509 -5.71256,2.91288 -6.88474,6.50374 -0.76295,2.33723 -0.97947,4.08686 -0.96881,7.82856 0.0105,3.67755 0.23062,6.02976 1.25779,13.44 0.29886,2.156 0.58996,4.352 0.6469,4.88 0.0569,0.528 0.28269,2.112 0.50168,3.52 0.21898,1.408 0.67475,4.396 1.01283,6.64 0.74502,4.94517 2.40175,14.72107 2.94201,17.36 0.21619,1.056 0.58198,3 0.81288,4.32 0.23089,1.32 0.63825,3.408 0.90525,4.64 0.26699,1.232 0.87873,4.18105 1.35943,6.55344 0.48069,2.37239 1.0465,5.00039 1.25735,5.84 0.21085,0.83961 0.71307,3.05586 1.11606,4.92501 0.40298,1.86915 1.018,4.49715 1.36672,5.84 0.34872,1.34285 0.9906,3.95355 1.42639,5.80155 0.43579,1.848 1.11807,4.512 1.51618,5.92 0.3981,1.408 1.11569,4.072 1.59464,5.92 0.76905,2.96732 1.98241,7.3055 3.93808,14.08 0.62378,2.16078 2.33989,7.77536 3.69918,12.10252 0.48399,1.54076 0.88026,2.53864 1.0311,2.59652 0.5107,0.19598 12.12555,1.66441 21.15606,2.67471 0.98954,0.1107 1.8513,0.14913 1.91503,0.0854 0.0637,-0.0637 -0.0942,-0.74211 -0.35087,-1.50751 -0.25671,-0.7654 -1.34449,-3.98364 -2.41727,-7.15164 -2.50215,-7.38898 -5.17317,-15.81859 -7.48271,-23.61511 -1.90745,-6.43912 -2.29965,-7.9219 -2.13813,-8.08342 0.15856,-0.15856 13.43627,0.89376 13.66423,1.08295 0.11455,0.0951 0.28535,0.47047 0.37955,0.83422 0.0942,0.36375 0.88404,2.89336 1.7552,5.62136 0.87115,2.728 1.86659,5.86 2.2121,6.96 0.9962,3.17165 4.6417,13.76796 6.30271,18.32 0.83487,2.288 1.60899,4.448 1.72026,4.8 0.5111,1.6169 1.48205,4.017 1.68991,4.1773 0.3806,0.29351 4.46225,0.60371 19.59084,1.48889 3.10755,0.18182 3.09977,0.18174 3.32992,0.0358 z M 470.08,491.83142 c -2.42,-0.15685 -4.72824,-0.29109 -5.12942,-0.2983 -0.40118,-0.007 -0.8574,-0.1067 -1.01383,-0.22108 -0.21175,-0.15484 -0.54524,-1.41173 -1.30544,-4.92 -2.41231,-11.13272 -6.26622,-32.41046 -5.93103,-32.74565 0.0568,-0.0568 2.82055,0.0205 6.14154,0.17199 4.73425,0.2159 6.07502,0.32362 6.20878,0.49886 0.0938,0.12293 0.33145,1.18184 0.52805,2.35313 1.18709,7.07231 4.06132,21.16577 6.03529,29.59331 0.65233,2.78502 1.18606,5.25102 1.18606,5.48 0,0.41214 -0.0117,0.4161 -1.16,0.39462 -0.638,-0.0119 -3.14,-0.15004 -5.56,-0.30688 z m 145.12333,64.6645 c 8.25655,-2.77528 15.52099,-5.77423 23.11667,-9.54316 4.55141,-2.25838 10.75187,-5.65093 13.04,-7.13478 0.748,-0.48508 2.278,-1.43993 3.4,-2.1219 1.122,-0.68197 2.04,-1.31503 2.04,-1.40681 0,-0.0918 -0.48982,-0.71642 -1.08848,-1.38807 -4.90545,-5.50356 -14.03163,-16.86356 -18.173,-22.6212 -1.48049,-2.0583 -2.13116,-2.84 -2.36392,-2.84 -0.17664,0 -1.73719,0.69304 -3.46788,1.5401 -5.34392,2.61548 -13.58802,6.10015 -18.39846,7.77679 -1.63452,0.56969 -1.83798,0.60764 -2.08,0.38795 -0.46712,-0.42402 -6.87896,-11.59925 -8.50582,-14.82484 -0.51041,-1.012 -1.7975,-3.48146 -2.8602,-5.48769 -1.06269,-2.00623 -2.21579,-4.27423 -2.56242,-5.04 -0.34664,-0.76577 -1.47109,-3.12031 -2.49878,-5.23231 -1.02769,-2.112 -2.07174,-4.344 -2.32011,-4.96 -0.24838,-0.616 -1.32219,-3.08512 -2.38626,-5.48694 -1.06407,-2.40182 -1.93467,-4.41089 -1.93467,-4.46459 0,-0.0537 -0.92542,-2.44459 -2.05649,-5.31306 -3.80114,-9.63995 -7.34635,-20.28442 -10.1567,-30.49541 -1.35649,-4.92861 -3.82481,-15.1162 -4.35478,-17.97366 -0.15514,-0.83641 -0.36685,-1.52812 -0.48115,-1.57198 -0.11227,-0.0431 -2.42414,0.28431 -5.1375,0.72754 -2.71336,0.44323 -6.44538,0.99468 -8.29338,1.22544 -1.848,0.23076 -3.44863,0.50472 -3.55696,0.60879 -0.24238,0.23285 0.19676,2.56554 1.94729,10.34387 2.84597,12.64591 7.00468,27.25365 10.68163,37.52 0.5358,1.496 1.53414,4.304 2.21854,6.24 0.68439,1.936 1.61429,4.42 2.06644,5.52 0.45215,1.1 1.32813,3.332 1.94663,4.96 0.6185,1.628 1.758,4.4 2.53223,6.16 0.77423,1.76 1.81306,4.19166 2.30851,5.40369 0.49545,1.21203 1.41082,3.26403 2.03417,4.56 0.62335,1.29597 1.63427,3.47231 2.24649,4.83631 1.56802,3.49348 7.2862,14.95728 8.93855,17.92 0.76072,1.364 2.09076,3.848 2.95563,5.52 2.2124,4.2771 7.35571,13.25696 11.31775,19.76 4.72594,7.75687 5.09513,8.32 5.45458,8.32 0.10735,0 2.10169,-0.64083 4.43185,-1.42408 z M 428.48,556.63541 c 2.08023,-0.32439 4.44598,-1.87703 5.59985,-3.67517 1.3063,-2.03569 1.71621,-4.71611 1.44366,-9.44024 -0.18262,-3.16555 -0.40013,-4.39667 -1.6537,-9.36 -1.24246,-4.91932 -3.28725,-13.39288 -3.47494,-14.4 -0.0984,-0.528 -0.59743,-2.796 -1.10897,-5.04 -0.51154,-2.244 -1.30766,-6.024 -1.76916,-8.4 -1.62582,-8.37032 -3.16657,-12.63765 -5.79588,-16.05248 -0.86313,-1.121 -2.44294,-2.42966 -3.7471,-3.10397 -0.55692,-0.28795 -1.01284,-0.61128 -1.01317,-0.7185 -3.2e-4,-0.10723 0.38516,-0.47993 0.85664,-0.82823 2.06284,-1.52391 3.24841,-3.87911 3.63281,-7.21682 0.25586,-2.22149 0.10617,-6.55115 -0.31252,-9.04 -0.17765,-1.056 -0.54478,-3.684 -0.81584,-5.84 -0.27106,-2.156 -0.56132,-4.35506 -0.64503,-4.88681 -0.19863,-1.26183 -1.19676,-10.14686 -1.59893,-14.23319 -0.5908,-6.00284 -1.4078,-10.33621 -2.56412,-13.6 -1.90456,-5.37579 -5.15079,-8.76486 -9.64212,-10.06639 -1.6211,-0.46978 -2.83665,-0.60019 -10.51148,-1.12777 -3.124,-0.21475 -11.42158,-0.79778 -18.43907,-1.29563 -7.01748,-0.49784 -12.86748,-0.86356 -13,-0.81271 -0.34398,0.132 -0.3207,1.49085 0.23644,13.79771 0.47476,10.48711 0.6241,13.0109 1.35771,22.94479 0.21121,2.86 0.42999,5.956 0.48617,6.88 0.0562,0.924 0.23894,2.976 0.40613,4.56 0.45202,4.28271 1.58022,15.36598 1.68568,16.56 0.20039,2.26859 3.0025,22.15881 3.83191,27.2 1.83494,11.15287 4.0921,22.56843 6.64359,33.6 1.61172,6.96835 1.63852,7.06918 1.9186,7.21727 0.12806,0.0677 3.22084,0.52958 6.87284,1.02636 3.652,0.49678 8.62,1.18739 11.04,1.53468 2.42,0.3473 7.964,1.13451 12.32,1.74936 4.356,0.61486 9.468,1.3619 11.36,1.6601 3.73008,0.58791 4.80493,0.65637 6.4,0.40764 z m -25.92,-34.41243 c -3.036,-0.34208 -5.69542,-0.71238 -5.90982,-0.82289 -0.45314,-0.23357 -0.65378,-1.00959 -1.4515,-5.61407 -0.27195,-1.56969 -0.71204,-3.90969 -0.97799,-5.2 -0.78187,-3.79354 -1.75082,-10.78793 -1.52676,-11.02099 0.14715,-0.15307 1.45466,-0.0788 6.08417,0.34542 3.2432,0.29721 5.95594,0.60094 6.02831,0.67496 0.0724,0.074 0.46478,2.07859 0.87202,4.45459 0.40725,2.376 1.33065,7.28863 2.05202,10.91696 0.72137,3.62833 1.28712,6.67033 1.25723,6.76 -0.0733,0.22 -0.12911,0.21572 -6.42768,-0.49398 z m -8.32,-53.03426 c -2.508,-0.20357 -4.884,-0.42831 -5.28,-0.49943 l -0.72,-0.12929 -0.26454,-1.84 c -0.43545,-3.02876 -1.65721,-17.74277 -1.48699,-17.90824 0.0924,-0.0899 2.11674,0.003 5.19153,0.2371 2.772,0.21141 5.26024,0.38591 5.52942,0.38776 0.98756,0.007 0.93706,-0.22196 1.749,7.92338 0.41229,4.136 0.873,8.49892 1.0238,9.69538 0.15081,1.19646 0.2465,2.25846 0.21265,2.36 -0.0784,0.23522 -0.42866,0.22189 -5.95487,-0.22666 z m -134.99517,82.58142 c 4.29345,-1.04547 9.52423,-2.08724 13.61131,-2.71084 1.98428,-0.30276 3.68967,-0.60109 3.78976,-0.66295 0.10009,-0.0618 0.1478,-0.23034 0.10603,-0.37441 -3.66128,-12.62743 -6.8859,-26.64978 -9.07477,-39.46194 -1.23377,-7.22166 -1.54015,-9.3538 -2.56351,-17.84 -0.52529,-4.356 -1.02422,-8.46 -1.10873,-9.12 -0.20181,-1.5762 -0.73623,-8.09693 -1.04248,-12.72 -0.13407,-2.024 -0.35127,-5.12 -0.48266,-6.88 -0.46557,-6.23658 -0.9158,-22.0341 -1.01917,-35.76 l -0.10061,-13.36 -6.89366,-0.11327 c -3.79152,-0.0623 -9.08352,-0.0623 -11.76,0 L 237.84,412.88 l -0.10232,1.44 c -0.0563,0.792 -0.0439,7.236 0.0276,14.32 0.34044,33.74816 2.46498,57.65061 7.34904,82.68162 2.41011,12.35193 5.18131,23.31968 9.20906,36.4473 1.43534,4.67819 1.44761,4.71108 1.75749,4.71108 0.13683,0 1.56061,-0.31944 3.16396,-0.70986 z M 359.90021,547.68 c -0.0109,-0.132 -0.63749,-2.976 -1.39247,-6.32 -3.20454,-14.19384 -6.5348,-33.13528 -7.94701,-45.2 -0.36567,-3.124 -0.90638,-7.48 -1.20157,-9.68 -0.2952,-2.2 -0.65113,-5.404 -0.79096,-7.12 -0.13984,-1.716 -0.57167,-6.72 -0.95963,-11.12 -0.38796,-4.4 -0.82352,-10.268 -0.9679,-13.04 -0.14439,-2.772 -0.36605,-6.588 -0.49258,-8.48 -0.12653,-1.892 -0.33451,-6.68 -0.46217,-10.64 -0.12766,-3.96 -0.31025,-9.432 -0.40574,-12.16 -0.0955,-2.728 -0.1886,-5.572 -0.2069,-6.32 l -0.0333,-1.36 -0.88,-0.11933 c -0.484,-0.0656 -4.696,-0.33445 -9.36,-0.59738 -4.664,-0.26292 -9.056,-0.51699 -9.76,-0.56459 -0.704,-0.0476 -1.38256,-0.0188 -1.50791,0.0641 -0.1967,0.12999 -0.2011,1.65867 -0.0322,11.16392 0.10767,6.05732 0.26261,12.56131 0.34433,14.45331 0.0817,1.892 0.29633,6.896 0.47694,11.12 0.18061,4.224 0.50622,9.91236 0.72359,12.64079 0.46815,5.87648 0.47515,6.10475 0.17977,5.8596 -0.11848,-0.0983 -0.65358,-1.13315 -1.1891,-2.29959 -3.18733,-6.94242 -3.87125,-8.46687 -5.0717,-11.30485 -0.72958,-1.72477 -2.67606,-6.30395 -4.3255,-10.17595 -2.7548,-6.46674 -8.26369,-20.22078 -11.53523,-28.8 -0.73826,-1.936 -1.46422,-3.61 -1.61325,-3.72 -0.14902,-0.11 -0.67119,-0.20222 -1.16037,-0.20493 -0.48918,-0.003 -4.77247,-0.13945 -9.51843,-0.30385 -4.74596,-0.1644 -8.73296,-0.25902 -8.86001,-0.21027 -0.35176,0.13498 -0.17039,24.40469 0.27411,36.67905 0.33449,9.23663 1.38047,26.03379 1.93788,31.12 2.23266,20.37238 3.88884,31.48857 6.63892,44.56 2.09437,9.95481 4.70083,20.53823 5.09515,20.68863 0.10063,0.0384 0.86696,0.0106 1.70296,-0.0617 1.45984,-0.12627 7.30345,-0.33045 16.04,-0.56045 3.42574,-0.0902 4.12,-0.14722 4.12,-0.33847 0,-0.1265 -0.17574,-0.92706 -0.39054,-1.779 -2.53749,-10.06444 -5.56582,-25.68281 -7.35813,-37.949 -0.60301,-4.1269 -2.33133,-18.61578 -2.33133,-19.54411 0,-0.16274 0.0734,-0.29589 0.1631,-0.29589 0.0897,0 1.94809,3.618 4.12975,8.04 6.661,13.50117 15.37909,29.65172 23.51374,43.56 1.18379,2.024 2.82965,4.84289 3.65745,6.26421 0.82781,1.42131 1.59305,2.65525 1.70053,2.7421 0.10749,0.0868 2.06743,0.27908 4.35543,0.4272 2.288,0.14812 6.212,0.47246 8.72,0.72074 5.10595,0.50548 6.01029,0.53055 5.98021,0.16575 z m 122.91761,-142.80646 -3.18218,-0.71509 -2.06492,-1.29684 c -1.89543,-1.19039 -2.19894,-1.45118 -3.69782,-3.17727 l -1.6329,-1.88044 -0.93785,-2.94195 c -0.78868,-2.47402 -0.95945,-3.22189 -1.07363,-4.70195 -0.19868,-2.57532 -0.46904,-8.85338 -0.58007,-13.46978 -0.0533,-2.21637 -0.14962,-4.11504 -0.21403,-4.21925 -0.0873,-0.14132 -0.37602,-0.10585 -1.13576,0.13954 -2.2976,0.7421 -8.42318,1.66913 -11.17866,1.69176 l -2.16,0.0177 0.0291,3.52 c 0.016,1.936 0.11381,5.83038 0.21741,8.65417 l 0.18836,5.13418 -0.61275,2.86582 -0.61275,2.86583 -1.02579,1.36 c -0.56418,0.748 -1.21427,1.56374 -1.44466,1.81276 -0.36976,0.39967 -2.4171,1.69368 -3.7842,2.39177 -0.26693,0.13631 -2.03024,0.485 -3.91847,0.77489 l -3.43314,0.52705 -6.32153,-0.36625 c -13.24035,-0.7671 -12.41905,-0.68018 -16.48296,-1.7444 -2.49039,-0.65216 -3.82139,-1.08197 -4.31443,-1.39321 l -0.713,-0.4501 -0.61062,0.35143 c -0.48447,0.27882 -1.37236,0.44787 -4.2979,0.81826 l -3.68728,0.46684 -6.50767,-0.47385 c -14.53897,-1.05864 -13.06375,-0.89943 -16.33865,-1.76326 l -2.95098,-0.77838 -2.88902,0.33897 c -2.84199,0.33345 -2.94893,0.33459 -6.56902,0.0697 -2.024,-0.14812 -6.69808,-0.48589 -10.38684,-0.75059 l -6.70684,-0.48129 -3.89391,-1.02634 c -2.41152,-0.63562 -4.19505,-1.19563 -4.68496,-1.47102 l -0.79106,-0.44467 -0.74836,0.36358 c -0.58931,0.28631 -1.57388,0.46176 -4.63264,0.8255 l -3.88428,0.46192 -7.49555,-0.46674 c -4.12256,-0.25671 -8.97156,-0.54559 -10.77556,-0.64197 -3.08271,-0.16468 -3.50144,-0.22679 -6.96151,-1.03259 l -3.68151,-0.85738 -3.67849,0.47354 -3.67849,0.47354 -7.12,-0.32401 c -3.916,-0.17821 -8.992,-0.38749 -11.28,-0.46506 l -4.16,-0.14104 -4.24,-0.91108 c -4.56308,-0.9805 -4.42523,-0.92905 -7.78412,-2.90511 -1.21366,-0.714 -1.76522,-1.18638 -3.22422,-2.76135 -1.93661,-2.09055 -1.7002,-1.62351 -2.90555,-5.74002 -0.18681,-0.638 -0.40816,-1.16 -0.49188,-1.16 -0.0837,0 -0.70031,1.098 -1.37019,2.44 -1.19703,2.39804 -1.24863,2.47044 -3.00101,4.21032 -1.73452,1.72215 -1.85649,1.80866 -4.48323,3.17976 l -2.7002,1.40945 -4.557,0.77509 -4.557,0.77509 -11.25223,0.007 c -6.18873,0.004 -11.45499,0.0469 -11.7028,0.0956 -0.24781,0.0487 -1.92657,-0.13916 -3.73057,-0.41749 -1.804,-0.27833 -3.532,-0.50203 -3.84,-0.49712 -0.308,0.005 -1.82,0.26749 -3.36,0.58349 -3.20598,0.65787 -2.77065,0.62545 -14,1.04255 -4.664,0.17324 -9.884,0.39041 -11.6,0.48261 -3.08259,0.16562 -3.17672,0.16089 -7.85124,-0.39452 l -4.73124,-0.56216 -2.83373,-1.32484 -2.83373,-1.32485 -2.13804,-1.97412 -2.13804,-1.97412 -3.00145,-6.18588 c -4.95805,-10.21836 -8.65951,-18.63683 -11.51348,-26.18588 -0.46576,-1.232 -1.47379,-3.896 -2.24007,-5.92 -3.55373,-9.38667 -5.94992,-16.56859 -7.0999,-21.28 -0.17183,-0.704 -0.67606,-2.684 -1.12052,-4.4 -1.08639,-4.19451 -2.56068,-11.10524 -3.15733,-14.8 -0.274,-1.69678 -0.85725,-5.60149 -1.97169,-13.2 -0.44528,-3.036 -1.02491,-6.672 -1.28808,-8.08 -0.26316,-1.408 -0.87238,-4.684 -1.35382,-7.28 -0.95043,-5.12485 -3.25701,-15.64548 -4.56727,-20.8319 -3.48971,-13.81344 -8.34539,-29.28864 -13.24369,-42.2081 -0.57485,-1.51617 -0.65522,-1.91404 -0.8242,-4.08 -0.10298,-1.32 -0.29757,-3.46067 -0.43242,-4.75705 l -0.24518,-2.35704 1.31169,-2.84296 c 0.72143,-1.56362 1.46509,-3.01208 1.65256,-3.21879 0.35127,-0.38732 4.1272,-3.53518 4.98087,-4.15239 0.33056,-0.23899 2.22236,-0.7712 6.07628,-1.7094 L 120.55255,192 l 10.08373,-0.001 c 10.5792,-0.002 19.71563,0.2145 21.20372,0.50146 0.484,0.0933 2.52657,0.56752 4.53904,1.05376 l 3.65904,0.88407 2.26096,-0.35239 c 5.46003,-0.85099 5.02505,-0.82277 8.58096,-0.55667 6.06689,0.454 14.96802,1.34855 22.37833,2.24899 l 3.41833,0.41536 4.74167,1.59561 4.74167,1.59561 1.76,-0.0968 c 0.968,-0.0533 2.88157,-0.17236 4.25238,-0.26465 2.24851,-0.15138 2.71818,-0.13473 4.8,0.17016 4.22765,0.61914 16.59983,2.90101 23.26762,4.29138 0.89211,0.18602 2.80972,0.85422 5.04,1.7562 6.83079,2.76255 6.91688,2.80381 8.68165,4.16096 0.90109,0.69297 2.28635,1.74923 3.07835,2.34725 0.792,0.59802 1.836,1.51655 2.32,2.04118 l 0.88,0.95387 2,-0.9545 c 3.64423,-1.73921 4.28416,-1.81082 11.86628,-1.3278 6.15095,0.39184 5.51995,0.25698 18.77372,4.01254 8.52915,2.4168 10.05595,2.86596 21.75533,6.39997 13.30137,4.01792 13.61968,4.1316 18.72467,6.68747 2.87682,1.44031 4.74063,2.47324 5.20832,2.88645 0.87146,0.76995 0.9851,0.80189 1.91293,0.53761 0.63794,-0.18171 1.10927,-0.15033 4.08,0.27166 1.84731,0.26241 3.75475,0.52698 4.23875,0.58795 0.98781,0.12442 5.99633,1.65474 11.76,3.59319 2.112,0.71031 5.28,1.72629 7.04,2.25773 1.76,0.53145 5.576,1.74751 8.48,2.70236 2.904,0.95486 6.432,2.07027 7.84,2.47869 4.79025,1.38954 8.63662,2.67685 10.16,3.40037 0.836,0.39705 3.1343,1.46796 5.10734,2.3798 4.77761,2.20796 5.41762,2.59424 8.46513,5.10918 1.43525,1.18444 2.64682,2.15352 2.69238,2.15352 0.0456,0 0.38261,-0.21113 0.74899,-0.46919 0.42706,-0.30078 1.48244,-0.70622 2.94039,-1.12958 l 2.27423,-0.66039 2.20577,0.17106 c 3.90508,0.30283 5.37409,0.49473 6.92577,0.90473 0.836,0.22089 3.32,0.79073 5.52,1.26631 2.2,0.47558 5.548,1.22873 7.44,1.67367 1.892,0.44494 5.132,1.0981 7.2,1.45147 2.068,0.35336 5.452,0.95983 7.52,1.34769 2.068,0.38787 4.516,0.78366 5.44,0.87953 3.82357,0.39673 6.3787,0.8502 8.8,1.56177 1.364,0.40085 3.5499,1.00483 4.85756,1.34218 2.67811,0.69091 3.48304,1.02361 5.82603,2.4081 l 1.64358,0.9712 0.60902,-0.42205 c 0.33496,-0.23212 1.57534,-0.80969 2.75641,-1.28347 1.80403,-0.72368 2.65909,-0.95708 5.3474,-1.45959 3.0029,-0.56132 3.47101,-0.60558 7.6,-0.71852 6.29676,-0.17224 13.6684,-0.79822 18.88,-1.60324 6.64487,-1.02641 12.01239,-2.13472 17.7651,-3.66821 2.39818,-0.63928 7.29547,-1.42942 9.30363,-1.50106 0.56771,-0.0203 1.01804,-0.12891 1.2,-0.28955 0.1602,-0.14143 0.93927,-0.6003 1.73127,-1.01972 0.792,-0.41942 2.448,-1.32362 3.68,-2.00934 1.232,-0.68571 3.788,-1.92518 5.68,-2.75437 11.57796,-5.0742 22.15878,-11.18452 33.51923,-19.35703 1.05558,-0.75936 2.67558,-1.78941 3.6,-2.289 0.92442,-0.49959 2.62991,-1.47574 3.78997,-2.16922 3.34881,-2.00192 3.83346,-2.19031 6.3987,-2.4872 3.06175,-0.35436 3.20553,-0.31558 4.74546,1.27972 2.25229,2.33327 2.26786,2.40565 2.26231,10.5133 -0.005,6.80299 -0.0822,7.74577 -1.12328,13.6564 -5.41254,30.72929 -7.951,50.81511 -9.26415,73.3036 -0.46687,7.99529 -0.61157,14.00228 -0.59933,24.88 0.007,6.028 -0.0537,12.05674 -0.13444,13.39721 -0.14031,2.33017 -1.07232,9.11089 -1.74505,12.69604 -0.50475,2.68987 -1.04951,4.17621 -2.73772,7.46963 -1.87579,3.65935 -2.18687,4.1367 -3.97882,6.10543 -3.42601,3.76399 -3.80747,4.05792 -7.4458,5.73723 -4.25758,1.96513 -4.97834,2.22243 -7.93745,2.8335 -6.34503,1.31027 -19.49501,3.28821 -29.22684,4.39612 l -2.91722,0.33211 -3.22178,-0.40933 c -1.77198,-0.22513 -3.53401,-0.49284 -3.91563,-0.59491 -0.59043,-0.15791 -0.73666,-0.14692 -0.98101,0.0738 -0.15793,0.14264 -1.72715,0.68744 -3.48715,1.21068 l -3.2,0.95133 -4.24,0.2673 c -7.86327,0.49572 -15.86805,0.74474 -26.16,0.81381 L 486,405.58863 Z M 511.44,391.68803 c 8.19235,-0.37748 13.52775,-0.75178 13.73988,-0.96391 0.0988,-0.0988 0.0863,-0.94542 -0.0349,-2.35911 -0.50504,-5.89155 -1.13586,-18.9249 -1.14205,-23.59557 -0.002,-1.273 -0.0694,-2.23165 -0.16165,-2.28867 -0.0873,-0.054 -1.36532,0.014 -2.84,0.15112 -3.66345,0.34052 -8.1761,0.66031 -13.85808,0.98205 -4.0679,0.23034 -4.79772,0.2375 -4.91755,0.0483 -0.29191,-0.46096 -0.12912,-18.53114 0.17132,-19.01727 0.0657,-0.10632 1.93566,-0.29698 4.81525,-0.49095 8.0133,-0.53979 16.66542,-1.40014 16.93324,-1.68381 0.078,-0.0826 0.25975,-2.56218 0.40392,-5.51018 0.38969,-7.96857 0.70388,-12.42577 1.30653,-18.53508 0.15528,-1.57418 0.19991,-2.67313 0.11211,-2.76093 -0.0878,-0.0878 -1.35233,0.0437 -3.17692,0.33045 -5.56292,0.87414 -18.39133,2.2293 -18.65044,1.97019 -0.11148,-0.11148 -0.0826,-1.10052 0.0906,-3.10412 0.36849,-4.26297 1.50929,-13.465 1.69193,-13.64764 0.0858,-0.0858 3.41423,-0.56562 7.39645,-1.06621 8.09376,-1.01744 14.45199,-2.10636 14.84448,-2.54227 0.14922,-0.16574 0.35808,-1.0741 0.53751,-2.33773 0.54885,-3.86533 2.18316,-13.56079 3.06224,-18.1666 0.4819,-2.52489 0.87619,-4.74132 0.87619,-4.92539 0,-0.42892 -0.076,-0.42475 -2.42774,0.13342 -5.39819,1.28118 -5.24077,1.25162 -14.952,2.80822 -1.94686,0.31206 -4.28686,0.64052 -5.2,0.72992 -4.63294,0.45358 -11.84625,0.94826 -15.30105,1.04935 -2.49192,0.0729 -3.93073,0.17633 -4.02031,0.28898 -0.15112,0.19003 -1.31863,8.23209 -2.09277,14.41544 -2.14213,17.10993 -3.38592,32.14551 -4.01703,48.56 -0.30079,7.82327 -0.33212,10.52698 -0.26322,22.72 0.0539,9.54503 0.15712,15.32958 0.3325,18.64 0.34091,6.4348 0.59157,10.15976 0.70327,10.45084 0.0811,0.21124 1.235,0.22768 9.62523,0.13711 5.31433,-0.0574 12.5778,-0.24319 16.41312,-0.41992 z m -71.50414,-2.39237 c -0.15553,-1.98816 -0.56878,-19.689 -0.57261,-24.52622 -0.002,-2.45066 0.0586,-4.1488 0.14999,-4.20526 0.0843,-0.0521 2.44228,0.0534 5.24,0.23437 12.14309,0.78558 14.8036,0.79823 16.9488,0.0806 1.63378,-0.54655 2.5525,-1.14786 3.7791,-2.47344 1.70897,-1.84689 2.82663,-4.57045 3.48225,-8.48571 0.57728,-3.4474 0.6354,-4.27768 0.96313,-13.76 0.37469,-10.84087 1.59119,-27.86357 2.8185,-39.44 1.04592,-9.86543 0.22823,-14.86652 -2.93306,-17.93895 -2.32378,-2.25846 -4.4106,-2.97915 -10.61196,-3.66489 -2.068,-0.22868 -5.02,-0.62164 -6.56,-0.87324 -1.54,-0.25161 -4.276,-0.68377 -6.08,-0.96037 -1.804,-0.27659 -4.036,-0.63929 -4.96,-0.80599 -3.61359,-0.65192 -15.5341,-3.03335 -16.79393,-3.35501 -0.7324,-0.187 -1.38294,-0.28184 -1.44565,-0.21077 -0.10813,0.12253 -0.44515,6.1841 -0.80337,14.44922 -0.0896,2.068 -0.30656,6.964 -0.48206,10.88 -0.1755,3.916 -0.42595,10.18 -0.55656,13.92 -0.1306,3.74 -0.30989,8.636 -0.39843,10.88 -0.58773,14.89602 -0.82752,44.76826 -0.49512,61.68 0.13928,7.08581 0.21021,8.66957 0.39433,8.80438 0.12393,0.0907 4.1213,0.39918 8.92265,0.68849 4.78398,0.28827 8.87814,0.53959 9.09814,0.5585 0.97972,0.0842 1.01352,0.0285 0.89586,-1.47571 z M 444.72,333.65259 c -2.464,-0.2142 -4.57,-0.4194 -4.68,-0.456 -0.14362,-0.0478 -0.2,-0.55589 -0.2,-1.80249 0,-3.28322 1.24022,-28.9167 1.53184,-31.66076 0.0483,-0.45466 0.17342,-0.85848 0.27801,-0.89738 0.40078,-0.14906 11.46296,1.25285 11.69181,1.4817 0.0978,0.0978 -0.004,2.37192 -0.28,6.27784 -0.49721,7.02704 -1.37989,23.33351 -1.38095,25.51141 -3.9e-4,0.80681 -0.0444,1.58081 -0.0978,1.72 -0.13131,0.34221 -1.24723,0.31386 -6.86288,-0.17432 z M 548,388.54734 c 6.56595,-0.87686 9.20643,-1.28277 15.68,-2.41041 8.24065,-1.43544 10.90324,-2.03189 12.44517,-2.78786 4.48392,-2.19835 6.88622,-7.43188 7.37603,-16.06907 0.0798,-1.408 0.10743,-7.096 0.0613,-12.64 -0.12356,-14.84373 0.2214,-23.84711 1.4866,-38.8 1.31249,-15.51185 4.00602,-35.15365 7.10895,-51.84 0.90805,-4.88311 1.17184,-7.22912 1.1874,-10.56 0.0191,-4.08871 -0.29901,-5.40904 -1.57258,-6.52726 -0.69811,-0.61294 -1.50446,-0.77832 -2.63685,-0.54079 -1.35542,0.2843 -2.61802,0.95189 -7.11395,3.76145 -11.11452,6.94562 -21.71854,12.24614 -32.90205,16.44641 l -1.04,0.3906 -0.98977,4.8748 c -4.14874,20.4333 -6.88206,41.16859 -8.06666,61.19479 -0.64456,10.89641 -0.88001,27.49655 -0.5265,37.12 0.30325,8.25541 1.00846,18.70826 1.29325,19.16906 0.13631,0.22056 2.11653,0.032 8.20968,-0.78172 z M 555.63331,357.56 c -0.0404,-0.11 -0.0418,-3.548 -0.003,-7.64 0.0522,-5.53263 0.19122,-9.55246 0.54232,-15.68 0.63267,-11.04173 0.71686,-12.18686 1.26459,-17.2 0.2596,-2.376 0.73215,-6.732 1.0501,-9.68 0.44907,-4.16362 1.82566,-14.04627 2.55402,-18.33553 0.0987,-0.58116 -0.2694,-0.38905 4.87883,-2.54623 2.156,-0.90339 4.41271,-1.86657 5.01491,-2.14039 0.60221,-0.27382 1.16969,-0.49785 1.26107,-0.49785 0.10068,0 0.13214,0.23645 0.0799,0.6 -0.0475,0.33 -0.48753,3.30877 -0.97791,6.61948 -3.16282,21.3529 -4.86862,42.33673 -4.89242,60.18395 -0.006,4.80985 0.31431,4.19655 -2.52973,4.83734 -1.73504,0.39091 -7.94661,1.67923 -8.09635,1.67923 -0.04,0 -0.10576,-0.09 -0.14611,-0.2 z m -151.89405,29.32 c -0.0114,-0.748 -0.0581,-10.828 -0.10386,-22.4 -0.0837,-21.18514 -0.10817,-22.08186 -0.67718,-24.80249 -0.29115,-1.39206 -0.96199,-3.24276 -1.55677,-4.29476 -0.74819,-1.32335 -2.21679,-2.79304 -3.40477,-3.40732 -0.56952,-0.29449 -1.0355,-0.60743 -1.0355,-0.69543 0,-0.088 0.47313,-0.40465 1.0514,-0.70367 2.10643,-1.08923 3.89231,-3.30045 4.81996,-5.96788 0.99334,-2.85635 1.24703,-5.62603 1.48465,-16.20845 0.0929,-4.136 0.28437,-11.38788 0.42556,-16.1153 0.27834,-9.31991 0.20118,-12.26186 -0.4217,-16.07808 -1.00312,-6.14578 -3.37441,-10.18832 -7.58482,-12.93049 -2.20129,-1.43367 -3.76076,-2.03189 -8.98354,-3.44615 -2.63598,-0.71378 -5.65669,-1.54673 -6.71269,-1.85099 -1.056,-0.30426 -5.124,-1.45321 -9.04,-2.55322 -3.916,-1.1 -7.912,-2.24391 -8.88,-2.54201 -2.58841,-0.7971 -12.05357,-3.44376 -12.31583,-3.44376 -0.12391,0 -0.26124,0.0582 -0.30518,0.12927 -0.0439,0.0711 0.0564,2.8611 0.22287,6.2 0.33025,6.62197 0.67664,16.42879 0.99433,28.15073 0.23346,8.61415 0.2811,65.28766 0.073,86.8 -0.10276,10.62089 -0.0875,13.08945 0.0823,13.30654 0.17593,0.2249 1.3334,0.35699 7.40851,0.84548 3.96,0.31841 8.45952,0.68135 9.99892,0.80653 1.68949,0.13738 2.85687,0.16966 2.94511,0.0814 0.0861,-0.0862 0.1405,-5.71682 0.13236,-13.71307 -0.008,-7.4618 0.0351,-17.0949 0.0949,-21.4069 l 0.10871,-7.84 0.50348,-0.0489 c 0.38153,-0.037 9.07011,0.90495 10.45652,1.13369 0.21184,0.035 0.2418,2.53265 0.25534,21.28703 0.013,18.01413 0.0495,21.28153 0.24,21.47149 0.21764,0.21704 1.21134,0.31061 15.10466,1.42225 1.496,0.1197 3.152,0.20792 3.68,0.19605 l 0.96,-0.0216 z M 381.28,314.47933 c -6.17303,-1.06504 -8.37401,-1.50577 -8.51302,-1.70467 -0.0888,-0.12703 -0.11284,-1.52093 -0.0589,-3.41466 0.0501,-1.76 0.0913,-7.69191 0.0915,-13.18203 l 4.2e-4,-9.98203 0.84,0.10155 c 0.462,0.0559 1.956,0.35768 3.32,0.67074 1.364,0.31306 3.524,0.78917 4.8,1.05803 1.276,0.26885 2.40936,0.57286 2.51857,0.67557 0.1575,0.14812 0.16529,2.84575 0.0377,13.04152 -0.0885,7.07013 -0.20011,12.9182 -0.24801,12.99572 -0.11636,0.18826 -0.27989,0.17303 -2.78822,-0.25974 z M 333.08264,382.68 c 0.2235,-0.27623 0.59661,-53.98891 0.45818,-65.96 -0.3139,-27.14576 -0.95144,-45.33408 -2.25873,-64.43846 -0.61056,-8.92264 -0.55721,-8.43317 -0.94501,-8.67041 -0.35968,-0.22004 -0.91352,-0.37751 -11.05708,-3.14382 -15.90606,-4.33784 -34.45158,-9.02379 -37.25843,-9.41418 -2.73134,-0.3799 -4.35394,-0.17258 -6.30254,0.80527 -2.0269,1.01714 -3.47507,2.69782 -4.36028,5.06034 -1.21495,3.24255 -1.58421,10.15253 -0.8786,16.44126 0.12836,1.144 0.48863,4.708 0.80061,7.92 0.31197,3.212 0.63374,6.452 0.71504,7.2 0.0813,0.748 0.22713,2.512 0.32407,3.92 0.0969,1.408 0.31458,4.216 0.48365,6.24 0.16907,2.024 0.38257,5.048 0.47443,6.72 0.0919,1.672 0.27126,4.732 0.39865,6.8 0.2431,3.94656 0.60369,12.4091 0.89652,21.04 0.28278,8.33477 0.37282,39.64713 0.15385,53.49764 -0.10884,6.88401 -0.13478,12.43855 -0.0584,12.51488 0.0755,0.0755 3.23195,0.28273 7.01437,0.46055 3.78241,0.17781 8.76556,0.43731 11.07367,0.57668 2.30812,0.13936 4.2618,0.21307 4.34153,0.16379 0.19179,-0.11853 0.34005,-7.21482 0.48591,-23.25738 0.0867,-9.53744 0.17019,-13.21435 0.30302,-13.34718 0.13779,-0.13779 1.82432,-0.0326 6.78816,0.42347 3.63265,0.33376 6.74023,0.67756 6.90573,0.76401 0.28855,0.15072 0.29679,0.37828 0.2007,5.54036 -0.0551,2.96075 -0.13798,10.35118 -0.18413,16.42318 -0.0462,6.072 -0.12294,11.688 -0.17064,12.48 -0.0637,1.05702 -0.0309,1.51015 0.12322,1.70377 0.17711,0.22252 1.07305,0.31876 5.72994,0.61545 3.036,0.19343 7.644,0.51483 10.24,0.71424 2.596,0.1994 4.87318,0.37245 5.06041,0.38454 0.18722,0.0121 0.41323,-0.068 0.50223,-0.178 z M 309.52,312.86669 c -0.792,-0.11707 -3.744,-0.50885 -6.56,-0.87062 -2.84513,-0.3655 -5.20679,-0.74226 -5.31534,-0.84796 -0.13792,-0.13431 -0.24412,-1.64767 -0.36132,-5.14916 -0.23259,-6.94919 -0.62138,-16.43257 -0.81233,-19.81464 -0.4818,-8.53352 -0.79498,-13.76086 -0.89056,-14.86431 -0.10547,-1.21762 -0.10078,-1.24 0.25975,-1.24 0.34904,0 13.38612,2.47806 13.94686,2.65099 0.35793,0.11038 0.41891,0.60162 0.61435,4.94901 0.091,2.024 0.26852,5.66 0.3945,8.08 0.21549,4.13929 0.37562,8.9173 0.72361,21.59176 0.14678,5.3458 0.11659,5.80359 -0.37911,5.74801 -0.0992,-0.0111 -0.82841,-0.11601 -1.62041,-0.23308 z m -131.28,65.858 c 1.98,-0.0824 7.128,-0.22736 11.44,-0.32208 4.312,-0.0947 7.99141,-0.20477 8.17647,-0.24455 0.25688,-0.0552 0.55439,-0.57241 1.25779,-2.1865 1.40286,-3.21914 2.78744,-6.8483 4.24687,-11.13156 0.72712,-2.134 1.38549,-3.88 1.46304,-3.88 0.21143,0 0.48646,0.69667 1.83175,4.64 1.20328,3.52705 3.97849,11.0438 4.40993,11.94444 l 0.21824,0.45556 11.99795,0.0828 c 6.59888,0.0455 12.09869,0.0517 12.2218,0.0137 0.27681,-0.0854 3.25038,-6.15237 5.53669,-11.29651 6.8046,-15.31024 11.05227,-29.50913 12.70809,-42.48 1.15199,-9.02414 1.36054,-15.35637 0.81942,-24.88 -0.77696,-13.67431 -1.81243,-26.14016 -3.13653,-37.76 -0.39108,-3.432 -0.75182,-6.6 -0.80164,-7.04 -0.0498,-0.44 -0.44292,-3.356 -0.87358,-6.48 -0.43065,-3.124 -0.86212,-6.292 -0.95883,-7.04 -0.0967,-0.748 -0.56268,-3.7 -1.03551,-6.56 -0.47282,-2.86 -0.94098,-5.776 -1.04035,-6.48 -0.0994,-0.704 -0.32037,-2.02166 -0.49113,-2.92812 -0.17076,-0.90647 -0.31047,-1.67277 -0.31047,-1.70288 0,-0.23483 -3.49644,-0.87731 -14.32091,-2.63154 -9.39718,-1.52291 -12.01682,-1.89306 -12.18779,-1.7221 -0.059,0.059 -0.0251,0.5207 0.0753,1.02597 0.37236,1.87386 1.63368,8.41074 2.42524,12.56905 0.44919,2.35971 1.20544,6.71571 1.68054,9.68 0.4751,2.96429 1.01333,6.28962 1.19606,7.38962 0.18273,1.1 0.66016,4.448 1.06095,7.44 0.4008,2.992 0.76134,5.584 0.8012,5.76 0.17382,0.76734 1.85471,16.43026 2.2236,20.72 0.22324,2.596 0.44276,4.972 0.48783,5.28 0.25507,1.74327 0.71594,10.70357 0.71596,13.92 2e-5,3.87066 -0.3347,10.98306 -0.64122,13.62506 -0.37038,3.19246 -0.91712,7.19373 -1.36792,10.01105 -0.55073,3.44186 -2.19218,10.71691 -3.09183,13.70327 -0.78836,2.6169 -0.9271,2.98062 -1.13698,2.98062 -0.22167,0 -0.327,-0.29444 -1.51686,-4.24 -1.59589,-5.29194 -2.3533,-8.1686 -3.53869,-13.44 -1.61212,-7.16903 -3.19804,-16.15922 -3.82449,-21.68 -0.1348,-1.188 -0.28015,-2.34 -0.32301,-2.56 -0.146,-0.74949 -0.4052,-3.43329 -0.7958,-8.24 -1.79874,-22.13524 -5.44551,-46.64219 -10.26163,-68.96 -1.16809,-5.41288 -1.57873,-7.1052 -1.76857,-7.2886 -0.12016,-0.11609 -2.84306,-0.39772 -14.61095,-1.51122 -6.72964,-0.63676 -13.31859,-1.06559 -13.50522,-0.87896 -0.10928,0.10928 0.19516,1.55361 0.93596,4.44037 3.09943,12.07799 5.51954,23.06869 7.05471,32.03841 0.39912,2.332 0.97895,5.53337 1.28851,7.11415 0.30955,1.58078 0.84448,4.83183 1.18873,7.22456 0.34425,2.39272 0.80621,5.41936 1.02657,6.72585 0.22037,1.30649 0.62086,4.24744 0.88998,6.53544 0.26912,2.288 0.66277,5.492 0.87479,7.12 0.21202,1.628 0.50097,4.256 0.64212,5.84 0.24949,2.79992 1.01448,10.60669 1.37185,14 0.0973,0.924 0.47046,3.48 0.82922,5.68 l 0.65229,4 -0.18938,2.96 c -0.36552,5.71295 -0.68085,8.06489 -1.88776,14.08 -1.02673,5.11717 -2.32065,9.9903 -2.77874,10.46522 -0.32182,0.33365 -0.68254,-0.43591 -1.81888,-3.88043 -1.76326,-5.3449 -2.5201,-7.96837 -4.09216,-14.18479 -2.84125,-11.23521 -4.9522,-22.88761 -6.00003,-33.12 -0.22528,-2.2 -0.44432,-4.18 -0.48675,-4.4 -0.0424,-0.22 -0.43971,-3.136 -0.88284,-6.48 -1.82617,-13.78085 -4.86677,-30.18151 -8.23153,-44.4 -1.45304,-6.1401 -4.35214,-17.13632 -5.53489,-20.99367 -0.47435,-1.54705 -0.47892,-1.55419 -1.07147,-1.67374 -0.96928,-0.19556 -29.27017,-0.16107 -29.46738,0.0359 -0.11825,0.11811 -0.0236,0.59662 0.31647,1.6 0.26684,0.78733 1.09019,3.3395 1.82966,5.6715 8.60583,27.13933 13.93583,52.38726 17.27698,81.84 0.50438,4.44615 0.71377,5.73116 2.15094,13.2 0.64498,3.35195 1.24695,6.0862 1.77887,8.08 0.16435,0.616 0.56028,2.128 0.87985,3.36 3.49649,13.47937 10.13029,30.63126 18.64223,48.2 l 1.64727,3.4 1.05502,-0.003 c 0.58025,-0.002 2.67501,-0.0702 4.65501,-0.15258 z"
         id="path3" />
      <path
         style="fill:#020101"
         d="m 188.28106,622.76244 c -0.61405,-0.0485 -1.47118,-0.45482 -4.48967,-2.12856 -2.05189,-1.13777 -3.87872,-2.23184 -4.05962,-2.43128 -0.38376,-0.42308 -3.64835,-4.66285 -6.93194,-9.0026 l -2.30015,-3.04 -2.68518,-5.46812 c -15.16606,-30.88432 -26.45768,-61.08915 -33.81533,-90.45519 -2.73779,-10.92716 -5.93612,-26.84373 -7.34583,-36.55669 -0.21712,-1.496 -0.61217,-4.20334 -0.87788,-6.01631 -0.26572,-1.81298 -0.66922,-4.98098 -0.89668,-7.04 -0.22746,-2.05903 -0.47925,-4.17569 -0.55953,-4.70369 -0.60389,-3.97162 -2.00612,-21.95539 -2.41401,-30.96 l -0.18482,-4.08 0.66347,-2.56 c 0.36491,-1.408 0.96782,-3.66794 1.33979,-5.02208 l 0.67632,-2.46208 2.65534,-3.14397 2.65534,-3.14397 3.68622,-2.27441 c 2.02743,-1.25093 3.93362,-2.37778 4.236,-2.50412 1.16709,-0.48765 13.42381,-3.44947 14.33231,-3.46339 1.30138,-0.0199 2.44253,-0.19892 2.46093,-0.38598 0.009,-0.088 -0.49123,-0.412 -1.11086,-0.72 -0.86918,-0.43204 -1.73696,-1.12668 -3.7977,-3.04 l -2.6711,-2.48 -1.68256,-3.35716 c -1.55635,-3.10531 -7.88392,-16.32776 -7.88392,-16.47467 0,-0.0356 -0.25155,-0.60939 -0.559,-1.27501 -1.61653,-3.49966 -4.48379,-10.50434 -5.83431,-14.25316 -0.28533,-0.792 -1.37019,-3.672 -2.41081,-6.4 -3.30064,-8.65263 -5.16808,-14.23988 -7.03721,-21.05474 -2.16801,-7.90464 -3.80334,-15.4288 -4.70881,-21.66526 -4.59177,-31.62627 -10.80017,-56.24846 -21.025703,-83.38681 -0.801341,-2.12674 -1.671905,-4.40783 -1.934585,-5.06909 -0.349834,-0.88066 -0.525137,-1.68674 -0.655293,-3.0132 -0.09773,-0.99599 -0.279048,-2.7469 -0.402927,-3.8909 -0.123879,-1.144 -0.345876,-3.196 -0.493327,-4.56 l -0.268093,-2.48 0.726473,-1.69225 c 0.39956,-0.93074 1.20335,-2.73074 1.7862,-4 1.043368,-2.27212 1.078851,-2.32414 2.298561,-3.36969 5.502764,-4.717 5.924144,-5.0505 6.615444,-5.23579 0.38686,-0.10369 3.72739,-0.94419 7.42339,-1.86778 l 6.72,-1.67925 10.32,-0.003 c 11.82146,-0.004 19.98582,0.21752 21.68,0.58726 1.66027,0.36235 2.75998,0.62057 5.6356,1.32332 l 2.59561,0.63431 2.92439,-0.45285 c 1.60842,-0.24906 3.3924,-0.50128 3.9644,-0.56048 1.03417,-0.10702 7.09811,0.31136 11.52,0.79482 1.188,0.12989 3.276,0.3465 4.64,0.48135 2.80753,0.27758 7.99721,0.89397 11.68,1.38728 2.28507,0.30608 2.80698,0.44499 6.64,1.76724 2.288,0.78927 4.412,1.50929 4.72,1.60003 0.39103,0.1152 1.91179,0.10367 5.04,-0.0382 5.34235,-0.24233 3.99808,-0.41038 17.36,2.17025 13.23786,2.55667 13.63652,2.64759 16.08,3.66728 1.144,0.47741 3.7,1.54493 5.68,2.37227 1.98,0.82734 4.19288,1.74517 4.91751,2.03963 0.94776,0.38511 1.86828,0.9558 3.28,2.03346 1.07937,0.82395 2.21566,1.67268 2.52509,1.88605 l 0.56259,0.38796 1.03741,-0.42705 c 0.82314,-0.33884 1.3722,-0.44086 2.65849,-0.49395 2.12883,-0.0879 13.52545,0.55779 15.22402,0.8625 1.72069,0.30868 15.49031,4.24556 24.27489,6.94045 9.87426,3.02918 11.09366,3.41166 18.8927,5.92595 l 7.0273,2.26549 4.24,2.1686 c 2.332,1.19273 4.68601,2.40985 5.23113,2.70471 1.04084,0.56301 2.04477,0.75331 8.74977,1.65863 2.35116,0.31746 2.56198,0.38154 16.88,5.13062 7.9745,2.64502 17.66517,5.82224 21.5348,7.06048 3.86964,1.23824 7.57764,2.48603 8.24,2.77286 0.66237,0.28683 3.77043,1.74615 6.90681,3.24292 5.17112,2.46782 7.48882,3.7469 8.61749,4.7558 1.0033,0.89682 1.03215,0.90066 2.96,0.39442 0.968,-0.2542 2.156,-0.46536 2.64,-0.46924 0.484,-0.004 2.788,0.17781 5.12,0.40377 3.29412,0.3192 4.72186,0.5317 6.4,0.95258 2.08902,0.52393 5.0581,1.22034 12.96,3.0398 2.068,0.47617 6.712,1.41074 10.32,2.07682 3.608,0.66609 6.668,1.24185 6.8,1.27948 0.132,0.0376 1.932,0.28702 4,0.5542 4.28162,0.55318 5.49266,0.77828 7.8,1.44982 2.85887,0.83207 4.86304,1.39525 6.84,1.92208 1.74393,0.46474 3.66994,1.08761 4.97695,1.60954 0.4452,0.17779 0.7118,0.13 2.56,-0.45888 1.8392,-0.58601 3.0076,-0.82898 6.38305,-1.32737 0.528,-0.078 1.68,-0.29088 2.56,-0.47316 1.30281,-0.26985 2.55102,-0.3569 6.72,-0.46866 11.55254,-0.30968 22.5268,-1.92754 34.64,-5.10675 3.19335,-0.83812 4.91143,-1.1989 6.96,-1.46154 4.82624,-0.61875 4.99853,-0.67826 9.79623,-3.38395 1.33992,-0.75566 3.35592,-1.78567 4.48,-2.28892 1.12407,-0.50325 2.54777,-1.22441 3.16377,-1.6026 0.616,-0.37818 2.38,-1.31668 3.92,-2.08554 8.32467,-4.15619 18.50642,-10.39182 25.6,-15.67826 3.23676,-2.41218 4.63761,-3.34261 8.50945,-5.65192 2.0842,-1.2431 4.40387,-2.66067 5.15482,-3.15017 0.75096,-0.4895 1.7097,-1.04392 2.13055,-1.23205 0.93386,-0.41745 5.91725,-1.08537 6.75092,-0.90482 0.3894,0.0843 0.95324,0.52241 1.96828,1.52925 2.58681,2.5659 2.51246,2.23811 2.54822,11.23411 0.0329,8.27121 -0.15184,10.4215 -1.54082,17.93693 -1.36063,7.36204 -4.14553,24.70908 -4.88041,30.4 -0.0966,0.748 -0.42216,3.16 -0.72348,5.36 -1.24626,9.09919 -2.63016,22.85383 -3.35645,33.36 -0.66727,9.65239 -0.90028,17.24458 -0.95021,30.96 -0.0499,13.70186 -0.0306,13.34597 -1.04963,19.44 -0.16921,1.012 -0.42016,2.74 -0.55765,3.84 -0.34673,2.77391 -0.81492,5.18673 -1.29357,6.66642 -0.49133,1.51891 -3.88648,8.58669 -4.71414,9.81358 -0.77899,1.15474 -5.66779,6.3507 -6.66088,7.07938 -0.75807,0.55623 -4.26674,2.34728 -6.895,3.51966 -0.726,0.32384 -1.32,0.66466 -1.32,0.75737 0,0.0927 0.57816,0.45109 1.2848,0.79641 1.01146,0.49427 1.71782,1.02798 3.32,2.5085 1.11936,1.03436 2.12138,2.0287 2.22671,2.20966 0.10533,0.18096 0.95652,1.93731 1.89153,3.90299 1.61387,3.39288 1.72763,3.70095 2.24501,6.08 1.67614,7.70733 4.94221,19.16694 7.89642,27.70603 1.77364,5.1267 5.08141,13.75843 6.16201,16.08 0.32769,0.704 1.20538,2.70807 1.95042,4.4535 0.74504,1.74542 1.88268,4.22942 2.52808,5.52 0.64541,1.29057 1.7616,3.59101 2.48043,5.11207 0.71883,1.52106 1.65296,3.35706 2.07584,4.08 0.42288,0.72294 1.61898,2.93078 2.65799,4.90633 1.03901,1.97554 2.26175,4.17154 2.71722,4.88 0.45546,0.70845 1.13176,1.8101 1.50288,2.4481 0.37113,0.638 0.77561,1.16 0.89885,1.16 0.12325,0 0.78607,-0.25839 1.47295,-0.5742 0.98274,-0.45185 2.08418,-0.74092 5.16886,-1.35656 2.156,-0.4303 4.388,-0.92958 4.96,-1.10953 0.99973,-0.3145 1.18559,-0.32018 4.8,-0.14644 3.72536,0.17906 3.788,0.188 6.8,0.97038 1.672,0.4343 3.164,0.82687 3.31556,0.87237 0.15155,0.0455 1.19973,0.78763 2.32929,1.64917 1.12956,0.86155 2.80556,2.07149 3.72445,2.68874 1.45826,0.97959 1.95348,1.4455 3.89459,3.66418 3.65061,4.17263 9.80102,10.50479 14.65611,15.0892 2.508,2.36818 4.75159,4.45602 4.98575,4.63964 0.23416,0.18362 1.28444,1.75567 2.33396,3.49345 3.10805,5.14628 2.87164,4.57704 3.06926,7.39037 0.3398,4.83724 0.33528,4.87632 -1.0427,9.01043 -1.40359,4.21093 -0.95879,3.52381 -6.34118,9.79583 l -2.99491,3.48993 -3.72509,2.6612 c -12.27849,8.77175 -26.01695,16.1035 -40.12509,21.41341 l -4.24,1.59581 -4.72,0.50688 c -2.596,0.27878 -4.91682,0.53833 -5.15737,0.57678 -0.24056,0.0385 -1.71656,0.78254 -3.28,1.65353 -4.36568,2.4321 -4.45325,2.46819 -7.96263,3.28175 -9.09678,2.10884 -21.76575,4.02636 -31.84,4.81916 -5.92373,0.46617 -7.5769,0.55121 -12.72,0.65431 l -5.2,0.10424 -3.04,-0.49566 c -1.672,-0.27261 -4.04705,-0.71227 -5.27788,-0.97701 -1.23084,-0.26475 -2.45855,-0.48136 -2.72824,-0.48136 -0.26969,0 -2.46665,0.4028 -4.88212,0.8951 -5.00715,1.02053 -5.36362,1.04024 -11.27176,0.6233 -1.848,-0.13041 -5.628,-0.3836 -8.4,-0.56263 -7.90094,-0.51028 -8.71908,-0.62793 -13.32796,-1.91658 -4.4079,-1.23245 -4.46575,-1.23898 -7.79204,-0.87919 -2.8867,0.31224 -4.26602,0.29844 -7.12,-0.0712 -8.62646,-1.11738 -14.07456,-1.85633 -17.28,-2.34379 -3.59468,-0.54664 -3.81169,-0.60177 -9.36,-2.37766 -3.124,-0.99993 -6.04,-1.95826 -6.48,-2.12964 -0.44,-0.17138 -2.024,-1.07748 -3.52,-2.01355 -1.496,-0.93607 -2.84805,-1.70244 -3.00456,-1.70304 -0.15651,-6e-4 -0.71402,0.2157 -1.2389,0.48066 -1.80725,0.91229 -2.25485,0.9672 -9.27654,1.13801 -3.564,0.0867 -6.912,0.11404 -7.44,0.0608 -0.93219,-0.094 -2.45839,-0.33935 -17.84,-2.86728 -6.39299,-1.05067 -21.63536,-3.41986 -26.8771,-4.17762 -1.28606,-0.18592 -3.44405,-0.7472 -7.19457,-1.87128 l -5.35747,-1.6057 -2.08543,0.10624 c -1.14699,0.0584 -3.34543,0.2151 -4.88543,0.34815 l -2.8,0.24191 -5.44,-0.56689 c -2.992,-0.31179 -7.204,-0.6789 -9.36,-0.81581 l -3.92,-0.24892 -5.12,-1.1957 c -2.816,-0.65764 -5.63742,-1.32531 -6.26982,-1.48372 -0.63241,-0.1584 -1.24441,-0.23567 -1.36,-0.17171 -0.1156,0.064 -2.55018,0.54969 -5.41018,1.07938 -5.19789,0.96268 -5.20156,0.96311 -9.04,1.05386 -4.74095,0.11209 -12.97163,0.50852 -15.44,0.74367 -1.56055,0.14867 -2.3989,0.12561 -5.52,-0.15179 -6.68228,-0.59391 -6.06047,-0.59217 -7.6,-0.0212 -0.748,0.2774 -2.692,1.07015 -4.32,1.76167 -2.71611,1.15371 -3.28957,1.33212 -6.96,2.16537 -4.22233,0.95853 -10.38687,2.66319 -13.6,3.76077 -1.64627,0.56235 -2.27357,0.68866 -4.4,0.88593 -1.364,0.12654 -3.47577,0.3741 -4.69282,0.55013 -1.21706,0.17603 -2.50381,0.32005 -2.85946,0.32005 -0.35565,0 -2.1629,-0.40177 -4.01611,-0.89282 l -3.36947,-0.89282 -2.89107,-1.93535 c -1.59009,-1.06444 -3.0622,-2.08467 -3.27136,-2.26718 -0.20916,-0.1825 -1.747,-2.37664 -3.41742,-4.87585 l -3.03711,-4.54403 -1.65315,-4.69078 c -1.60835,-4.56367 -3.61152,-10.56076 -4.14896,-12.42117 -0.20569,-0.71202 -0.33586,-0.92 -0.57579,-0.92 -0.31936,0 -4.94333,2.77473 -5.13159,3.07933 -0.058,0.0938 -0.0153,0.4653 0.0949,0.82559 0.3751,1.22685 2.68421,7.84318 4.24924,12.17543 1.53984,4.26252 1.56855,4.36854 2.14444,7.92 0.32104,1.97981 0.76893,4.53565 0.99532,5.67965 0.4637,2.34324 0.46396,2.33116 -0.1647,7.7685 -0.39,3.37319 -0.41951,3.50612 -1.35155,6.08688 -0.52407,1.4511 -1.13882,3.24807 -1.36611,3.99326 -0.33742,1.10622 -0.59815,1.5895 -1.4206,2.63313 -1.18406,1.50249 -4.66175,6.37919 -5.36998,7.53022 -0.27077,0.44004 -1.46801,1.71622 -2.66055,2.83594 -3.14355,2.95162 -7.63885,7.72888 -10.63462,11.30166 l -2.60738,3.10959 -4.02683,2.81041 c -2.21476,1.54573 -4.22015,2.93641 -4.45642,3.09041 -0.37585,0.24497 -0.81557,0.27639 -3.51522,0.25116 -1.6971,-0.0159 -3.42715,-0.0558 -3.84457,-0.0887 z m 8.45768,-11.12244 3.37025,-2.12 3.20302,-3.44 c 3.53205,-3.79337 8.20397,-8.32133 11.17181,-10.82757 1.18084,-0.99718 2.16952,-1.98433 2.56,-2.55606 0.3499,-0.5123 1.54002,-2.09035 2.64471,-3.50678 l 2.00854,-2.57533 1.0939,-3.02713 1.0939,-3.02713 0.38967,-3.44 0.38967,-3.44 -0.56679,-2.96 c -0.31173,-1.628 -0.68625,-3.68 -0.83226,-4.56 -0.146,-0.88 -0.4795,-2.14 -0.74111,-2.8 -0.2616,-0.66 -1.60775,-4.332 -2.99145,-8.16 -2.65628,-7.34862 -4.57302,-13.16144 -4.44685,-13.48577 0.0416,-0.10683 0.75027,-0.44018 1.57491,-0.74078 2.28684,-0.83362 3.83186,-1.58956 6.45934,-3.16038 1.32,-0.78916 3.16729,-1.84425 4.1051,-2.34466 0.9378,-0.50041 2.13568,-1.23352 2.66196,-1.62912 0.52627,-0.39561 1.03393,-0.71929 1.12812,-0.71929 0.0942,0 0.3137,0.486 0.48777,1.08 0.17408,0.594 0.82904,2.844 1.45546,5 0.62642,2.156 2.21982,7.17208 3.5409,11.14683 l 2.40195,7.22684 2.16286,3.33316 c 1.18958,1.83325 2.31403,3.4959 2.49878,3.69478 0.18475,0.19889 1.31268,1.03764 2.5065,1.86389 l 2.1706,1.50228 2.77859,0.80872 2.77859,0.80872 1.94141,-0.22197 c 1.06778,-0.12209 2.83977,-0.30473 3.93776,-0.40587 1.63085,-0.15023 2.58291,-0.35792 5.2,-1.13438 3.88337,-1.15215 10.59753,-2.81983 14.08365,-3.49813 1.8713,-0.3641 3.01196,-0.6873 4.24,-1.20137 0.924,-0.3868 2.60973,-1.06508 3.74608,-1.50727 1.39151,-0.5415 2.23818,-0.97081 2.5932,-1.31492 l 0.52714,-0.51092 0.92679,0.35805 c 0.70617,0.27282 1.87896,0.45331 4.92679,0.75824 3.59,0.35917 4.2132,0.382 6.08,0.22266 2.59912,-0.22184 10.89957,-0.60204 16.08,-0.73655 3.61332,-0.0938 4.18913,-0.15059 7.36,-0.72568 1.892,-0.34314 3.59041,-0.65908 3.77423,-0.70209 0.18383,-0.043 0.88806,-0.43972 1.56495,-0.8816 0.6769,-0.44188 1.33125,-0.80342 1.45412,-0.80342 0.12286,0 1.11064,0.4287 2.19505,0.95268 1.77332,0.85684 2.38207,1.05089 6.05165,1.92907 4.0776,0.97582 4.08264,0.97657 8.56,1.27825 2.464,0.16602 6.55407,0.52194 9.08905,0.79093 5.19944,0.55172 5.97426,0.57262 9.23095,0.24907 1.276,-0.12677 2.752,-0.23421 3.28,-0.23876 0.599,-0.005 1.22228,-0.12728 1.65747,-0.32475 0.93684,-0.4251 1.13363,-0.40506 2.21396,0.22546 1.13648,0.66331 9.16837,3.06506 11.04069,3.30147 0.68633,0.0867 3.15588,0.44848 5.48788,0.80403 2.332,0.35556 6.472,0.96994 9.2,1.36529 2.728,0.39536 6.868,1.03718 9.2,1.42627 2.332,0.38909 5.896,0.95956 7.92,1.26771 2.024,0.30814 5.66,0.90199 8.08,1.31965 l 4.4,0.75939 4.4,-0.0334 c 5.07792,-0.0385 7.68295,-0.23324 8.80046,-0.65786 0.43413,-0.16495 1.80615,-0.8477 3.04895,-1.51723 1.24279,-0.66952 2.33484,-1.21731 2.42677,-1.21731 0.0919,0 0.75139,0.52967 1.46548,1.17705 0.82442,0.74739 2.40801,1.86524 4.33834,3.0624 3.03423,1.88177 3.04608,1.8873 6.24,2.91202 1.76,0.56467 3.848,1.24217 4.64,1.50554 1.02621,0.34127 2.70435,0.66091 5.84,1.11238 5.30435,0.76371 17.55942,2.36094 19.12,2.49196 0.68374,0.0574 2.46063,-0.0404 4.56174,-0.25114 l 3.44174,-0.34517 4.07826,1.14252 c 3.20263,0.89721 4.52485,1.19053 6.15826,1.36613 2.68627,0.28878 15.83422,1.16741 19.36,1.29375 l 2.72,0.0975 3.75615,-0.75617 c 3.88796,-0.7827 4.10619,-0.8487 4.84906,-1.46656 0.49353,-0.41047 0.58874,-0.39494 2.0175,0.32907 0.91286,0.46258 3.31027,0.99082 7.37711,1.62545 l 2.79981,0.43691 6.24019,-0.18846 c 6.55671,-0.19801 9.77684,-0.41295 15.84018,-1.05728 2.024,-0.21508 4.184,-0.43567 4.8,-0.49019 2.11603,-0.18728 10.24246,-1.37448 13.12,-1.9167 1.584,-0.29848 3.528,-0.65915 4.32,-0.80147 2.7072,-0.48651 7.83916,-1.72048 8.48,-2.03901 1.66744,-0.82881 6.47981,-3.52747 6.64477,-3.72624 0.12801,-0.15424 0.3927,-0.19827 0.85054,-0.14148 0.36558,0.0454 2.68275,-0.13049 5.14927,-0.39077 l 4.48459,-0.47323 2.39541,-0.91163 c 1.31748,-0.50139 3.25942,-1.22033 4.31542,-1.59764 1.056,-0.37731 2.928,-1.13292 4.16,-1.67914 1.232,-0.54621 2.94051,-1.27258 3.79669,-1.61414 0.85618,-0.34156 2.69218,-1.18558 4.08,-1.87559 1.38782,-0.69001 3.20731,-1.5731 4.04331,-1.96241 0.836,-0.38932 2.492,-1.25406 3.68,-1.92165 1.188,-0.66759 2.952,-1.6343 3.92,-2.14823 0.968,-0.51394 2.804,-1.59419 4.08,-2.40056 1.276,-0.80637 2.968,-1.84582 3.76,-2.3099 0.792,-0.46408 2.484,-1.58067 3.76,-2.48132 1.276,-0.90064 3.04,-2.12569 3.92,-2.72234 1.1541,-0.78248 1.90657,-1.44702 2.70007,-2.38451 0.60503,-0.71484 1.90103,-2.1893 2.88,-3.27658 0.97896,-1.08728 1.88027,-2.16462 2.00291,-2.3941 0.12264,-0.22948 0.6083,-1.56844 1.07926,-2.97546 l 0.85627,-2.55822 -0.0971,-2.80768 -0.0971,-2.80767 -1.66306,-3.05701 -1.66306,-3.057 -4.73843,-4.703 c -2.60613,-2.58664 -6.00237,-6.10699 -7.5472,-7.82299 -1.54482,-1.716 -3.3941,-3.732 -4.10952,-4.48 -0.71541,-0.748 -2.36088,-2.66443 -3.65661,-4.25873 -2.22068,-2.73241 -2.44968,-2.96114 -3.99115,-3.98639 -0.89941,-0.59821 -2.10329,-1.45827 -2.67529,-1.91125 -1.3811,-1.09373 -1.14783,-0.98372 -3.98212,-1.87796 -2.48725,-0.78475 -2.50945,-0.78847 -5.21788,-0.87551 l -2.72,-0.0874 -3.92,0.91449 c -3.87891,0.90491 -3.95896,0.93207 -7.63665,2.591 -2.04415,0.92208 -3.83446,1.65294 -3.97846,1.62413 -0.35469,-0.071 -4.4262,-7.14226 -7.86076,-13.65238 -8.76627,-16.61624 -15.71294,-33.74607 -20.82806,-51.36 -1.49624,-5.15232 -3.50827,-12.99168 -4.34398,-16.92527 -0.4349,-2.04698 -0.62175,-2.56669 -1.86626,-5.19076 l -1.38297,-2.91603 -1.64912,-1.53353 c -1.50263,-1.39731 -1.82342,-1.61336 -3.61143,-2.43231 l -1.96231,-0.89878 -2.56,-0.12479 c -1.408,-0.0686 -2.92,-0.1576 -3.36,-0.1977 -0.51287,-0.0467 -2.52278,0.2059 -5.6,0.70388 -2.64,0.42722 -6.50724,1.00186 -8.59388,1.27697 l -3.79387,0.50019 -3.11509,1.14906 -3.11509,1.14907 -1.66079,1.46652 c -1.64914,1.45622 -2.1588,2.15613 -3.63608,4.99346 -0.11131,0.21379 -0.28784,1.75332 -0.40361,3.52 -0.20036,3.05746 -0.19591,3.19681 0.16931,5.30002 0.2063,1.188 0.49025,2.7 0.63101,3.36 0.14076,0.66 0.61237,2.928 1.04803,5.04 1.66209,8.05755 5.05254,21.57814 7.02134,28 0.43166,1.408 1.12126,3.712 1.53244,5.12 0.96773,3.31377 4.20331,13.16286 5.2037,15.84 0.42749,1.144 1.34985,3.7 2.04969,5.68 0.69984,1.98 1.68434,4.608 2.18779,5.84 0.50344,1.232 1.50966,3.788 2.23603,5.68 0.72637,1.892 1.62706,4.124 2.00153,4.96 0.37447,0.836 1.3867,3.212 2.24939,5.28 1.20744,2.89443 1.52474,3.80298 1.37834,3.94669 -0.19148,0.18795 -3.43989,0.74315 -5.75987,0.98445 -0.83392,0.0867 -1.32139,0.0732 -1.46524,-0.0406 -0.20885,-0.16525 -1.49976,-3.23512 -4.07498,-9.69056 -7.83394,-19.63773 -14.60849,-41.14182 -19.13057,-60.72512 -1.34929,-5.84323 -3.22636,-14.88229 -3.84177,-18.50015 -0.37102,-2.18107 -0.49132,-2.55841 -1.71835,-5.38977 L 530,416.82046 l -1.56637,-1.68275 c -1.44257,-1.54976 -1.735,-1.77794 -3.69985,-2.88702 l -2.13348,-1.20427 -3.34015,-0.57785 -3.34015,-0.57785 -5.92,0.17346 c -3.256,0.0954 -7.36,0.2093 -9.12,0.25309 -2.70883,0.0674 -3.45786,0.14247 -4.88,0.48906 -0.924,0.22518 -2.328,0.55329 -3.12,0.72911 -0.81901,0.18183 -1.70703,0.49539 -2.0592,0.7271 l -0.6192,0.40742 -0.76613,-0.41698 c -0.51841,-0.28216 -1.84939,-0.64701 -4.11638,-1.12841 l -3.35026,-0.71143 -7.02442,-0.16783 c -8.65991,-0.20692 -18.94456,-0.5661 -25.82441,-0.9019 -3.76592,-0.18381 -5.50888,-0.20932 -6.32,-0.0925 -6.08055,0.87562 -8.17123,1.23247 -9.17379,1.56582 -0.64559,0.21466 -2.33759,1.05246 -3.76,1.86177 -2.32336,1.32193 -2.73529,1.62401 -4.05307,2.97224 l -1.46686,1.50076 -1.49314,-1.55757 c -1.20336,-1.25528 -2.0055,-1.89653 -4.13314,-3.3041 -3.87986,-2.56679 -4.76177,-2.95187 -9.76,-4.26163 -2.332,-0.61109 -4.62988,-1.19321 -5.10639,-1.2936 -0.47652,-0.10039 -4.83252,-0.4673 -9.68,-0.81537 -4.84749,-0.34807 -10.79361,-0.77693 -13.21361,-0.95302 -2.42,-0.1761 -7.388,-0.53651 -11.04,-0.80093 l -6.64,-0.48075 -3.85578,0.46214 c -2.94705,0.35322 -4.01191,0.54178 -4.51824,0.8001 l -0.66247,0.33796 -0.84176,-0.47286 c -0.57821,-0.32482 -2.05515,-0.77644 -4.71745,-1.44251 l -3.8757,-0.96965 -5.8843,-0.3924 c -3.23636,-0.21582 -8.05396,-0.51845 -10.70577,-0.67251 l -4.82147,-0.2801 -4.05853,0.51437 c -3.92642,0.49764 -4.10216,0.53523 -5.3988,1.15502 l -1.34026,0.64063 -0.65974,-0.37999 c -0.36285,-0.209 -0.98941,-0.56932 -1.39234,-0.80073 -0.51181,-0.29392 -1.98262,-0.70655 -4.88,-1.36906 l -4.14739,-0.94834 -5.68,-0.25536 c -3.124,-0.14045 -7.46751,-0.32407 -9.65225,-0.40805 l -3.97226,-0.15269 -4.38713,0.63119 c -3.10559,0.44682 -4.5724,0.72571 -5.02137,0.95476 -0.82145,0.41908 -1.16495,0.40783 -1.9785,-0.0648 -0.48286,-0.2805 -1.82367,-0.62046 -4.82849,-1.22427 l -4.16,-0.83594 -4.8,-0.12201 c -2.64,-0.0671 -8.06995,-0.12818 -12.06656,-0.13573 l -7.26655,-0.0137 -3.61345,0.64551 c -1.98739,0.35503 -3.94923,0.71294 -4.35963,0.79535 -0.92611,0.18597 -5.76,2.72923 -6.57105,3.45723 -0.69829,0.6268 -0.63559,0.63903 -2.87761,-0.56151 -1.88209,-1.00781 -3.57735,-1.68649 -5.00515,-2.00374 -0.616,-0.13688 -3.352,-0.59176 -6.08,-1.01085 -4.831,-0.74217 -5.04947,-0.7615 -8.4,-0.74327 -3.70409,0.0202 -17.29631,0.56013 -23.68,0.94073 -2.156,0.12854 -6.404,0.38041 -9.44,0.55972 -3.036,0.1793 -8.22,0.53719 -11.52,0.79531 l -6,0.46931 -4.38603,1.13683 c -2.41231,0.62526 -4.63172,1.23949 -4.932,1.36496 -0.57891,0.24188 -5.35249,3.15946 -5.86377,3.58389 -0.16598,0.13779 -1.15424,1.25787 -2.19611,2.48906 -2.1124,2.49622 -1.86072,1.95447 -3.27127,7.04147 l -0.75421,2.72 0.18501,4.08 c 1.3044,28.76538 4.31423,52.66159 9.69344,76.96 6.59723,29.80031 17.37791,60.46425 32.4827,92.39188 3.91316,8.27141 3.38999,7.40191 8.3485,13.87509 l 2.28804,2.98697 1.88285,1.10622 c 3.99656,2.34808 3.61629,2.18909 5.48285,2.29236 0.924,0.0511 2.25791,0.10522 2.96424,0.12022 l 1.28425,0.0273 z m -7.58311,-24.48176 c -0.55057,-0.6795 -7.01652,-15.56421 -9.95372,-22.91357 -4.44528,-11.12285 -9.0821,-24.39406 -12.07653,-34.56467 -0.67364,-2.288 -1.40555,-4.736 -1.62647,-5.44 -0.85431,-2.72233 -3.80098,-14.33571 -4.95281,-19.52 -5.89455,-26.53076 -8.79925,-51.38102 -9.76445,-83.5368 -0.0711,-2.36827 -0.0517,-3.57049 0.0588,-3.63875 0.50546,-0.31239 21.57622,-2.05105 35.15956,-2.90121 11.65826,-0.72966 15.92694,-0.90365 17.81123,-0.72595 3.889,0.36674 6.26775,1.41539 8.68504,3.8287 2.66965,2.66527 4.10446,6.02445 4.9607,11.61401 0.23748,1.55031 0.35492,3.48571 0.46115,7.6 0.20269,7.85051 1.04086,23.56675 1.61274,30.24 0.83694,9.76632 2.48306,22.98108 3.81671,30.64 0.56658,3.25372 0.7265,5.22601 0.70704,8.72 -0.0283,5.09191 -0.52596,7.50972 -2.1597,10.49344 -2.04764,3.73966 -4.53925,5.54149 -9.5937,6.93778 -2.61364,0.72202 -15.67596,4.99459 -18.22121,5.96 -1.87477,0.7111 -2.11884,0.8602 -2.01568,1.23137 2.86681,10.3151 9.02655,27.6114 14.26088,40.04396 0.48114,1.14281 0.8748,2.21181 0.8748,2.37556 0,0.19657 -0.44848,0.59065 -1.32,1.1599 -3.86547,2.52476 -11.94492,8.62893 -15.08,11.3932 -1.36685,1.20519 -1.44295,1.25161 -1.64437,1.00303 z m -2.88803,-93.86347 c 1.43682,-0.34388 4.6284,-1.03481 7.0924,-1.5354 2.464,-0.50058 4.534,-0.94348 4.6,-0.98421 0.19454,-0.12004 0.13999,-0.94128 -0.19378,-2.91739 -0.30685,-1.81674 -0.95141,-6.49774 -1.59972,-11.61777 -0.67912,-5.36329 -1.45638,-13.67459 -1.84045,-19.68 -0.60768,-9.50186 -0.58166,-9.21603 -0.84822,-9.31832 -0.12996,-0.0499 -1.14564,-0.004 -2.25706,0.10272 -2.94252,0.28162 -12.68886,1.44435 -13.04316,1.55605 -0.28333,0.0893 -0.2955,0.22272 -0.19319,2.11744 0.29649,5.49104 1.75644,19.94021 2.73879,27.10591 0.81711,5.96039 2.34377,15.29153 2.55874,15.63936 0.13501,0.21844 0.0794,0.22717 2.98565,-0.46839 z m 357.21002,74.36848 c -0.391,-0.22406 -0.91779,-1.31693 -3.03833,-6.30325 -1.01044,-2.376 -2.24961,-5.22 -2.75371,-6.32 -0.5041,-1.1 -1.55077,-3.584 -2.32594,-5.52 -0.77517,-1.936 -1.92916,-4.744 -2.56443,-6.24 -0.63527,-1.496 -1.83174,-4.51016 -2.65883,-6.69814 -0.82708,-2.18797 -1.85913,-4.85197 -2.29345,-5.92 -0.43431,-1.06802 -1.50478,-3.95786 -2.37883,-6.42186 -0.87404,-2.464 -1.74911,-4.876 -1.94461,-5.36 -0.52796,-1.30713 -4.21275,-12.26172 -5.30118,-15.76 -0.52021,-1.672 -1.48045,-4.732 -2.13386,-6.8 -0.65341,-2.068 -1.6969,-5.56 -2.31886,-7.76 -0.62195,-2.2 -1.33973,-4.72 -1.59504,-5.6 -2.57568,-8.87761 -6.87397,-27.18657 -8.90226,-37.92 -0.48225,-2.552 -0.90869,-4.748 -0.94765,-4.88 -0.1433,-0.4856 -2.14123,-12.61293 -2.33866,-14.19563 -0.11223,-0.8996 -0.16714,-1.67254 -0.12203,-1.71765 0.0451,-0.0451 3.20907,-0.154 7.03103,-0.242 3.82196,-0.088 7.82928,-0.20747 8.90515,-0.26552 1.62459,-0.0876 1.97113,-0.0665 2.04459,0.12498 0.0486,0.12678 0.25959,1.3072 0.46876,2.62316 0.54466,3.4267 2.06313,11.43813 2.89474,15.27266 0.39124,1.804 0.89336,4.18 1.11581,5.28 0.89276,4.4145 4.21296,17.63578 6.14757,24.48 2.32805,8.23619 5.47516,18.30485 7.72658,24.72 0.71033,2.024 1.6678,4.796 2.1277,6.16 0.45991,1.364 1.50092,4.20724 2.31336,6.31831 0.81244,2.11107 1.78324,4.70307 2.15734,5.76 0.37409,1.05693 1.37247,3.59259 2.21862,5.6348 0.84614,2.04221 1.948,4.77821 2.44857,6.08 1.16437,3.02806 2.19551,5.25247 2.48662,5.36418 0.35038,0.13445 4.16829,-0.15556 7.81361,-0.59353 1.804,-0.21674 5.224,-0.6139 7.6,-0.88258 3.45441,-0.39062 7.54179,-1.01561 9.87256,-1.50957 0.14991,-0.0318 0.38038,0.0246 0.51215,0.12531 0.13177,0.1007 1.03365,1.86018 2.00418,3.90997 0.97053,2.04979 2.36939,4.82179 3.10859,6.16 0.7392,1.33821 2.0081,3.76511 2.8198,5.39311 1.35068,2.70904 7.10767,13.25309 8.98929,16.46407 0.43319,0.73924 0.76582,1.45924 0.73918,1.6 -0.0594,0.31387 -4.16611,1.18993 -9.00575,1.92115 -1.76,0.26592 -5.36,0.8078 -8,1.20418 -2.88289,0.43285 -6.74906,0.88245 -9.68,1.12569 -2.684,0.22275 -6.536,0.54725 -8.56,0.72113 -2.024,0.17388 -5.84,0.35663 -8.48,0.40612 -2.64,0.0495 -5.052,0.11985 -5.36,0.15636 -0.308,0.0365 -0.68707,-0.006 -0.84238,-0.0955 z M 519.52,567.50619 c -15.12859,-0.88518 -19.21024,-1.19538 -19.59084,-1.48889 -0.20786,-0.1603 -1.17881,-2.5604 -1.68991,-4.1773 -0.11127,-0.352 -0.88539,-2.512 -1.72026,-4.8 -1.66101,-4.55204 -5.30651,-15.14835 -6.30271,-18.32 -0.34551,-1.1 -1.34095,-4.232 -2.2121,-6.96 -0.87116,-2.728 -1.66099,-5.25761 -1.7552,-5.62136 -0.0942,-0.36375 -0.265,-0.73915 -0.37955,-0.83422 -0.22796,-0.18919 -13.50567,-1.24151 -13.66423,-1.08295 -0.16152,0.16152 0.23068,1.6443 2.13813,8.08342 2.30954,7.79652 4.98056,16.22613 7.48271,23.61511 1.07278,3.168 2.16056,6.38624 2.41727,7.15164 0.25671,0.7654 0.4146,1.44378 0.35087,1.50751 -0.0637,0.0637 -0.92549,0.0253 -1.91503,-0.0854 -9.03051,-1.0103 -20.64536,-2.47873 -21.15606,-2.67471 -0.15084,-0.0579 -0.54711,-1.05576 -1.0311,-2.59652 -1.35929,-4.32716 -3.0754,-9.94174 -3.69918,-12.10252 -1.95567,-6.7745 -3.16903,-11.11268 -3.93808,-14.08 -0.47895,-1.848 -1.19654,-4.512 -1.59464,-5.92 -0.39811,-1.408 -1.08039,-4.072 -1.51618,-5.92 -0.43579,-1.848 -1.07767,-4.4587 -1.42639,-5.80155 -0.34872,-1.34285 -0.96374,-3.97085 -1.36672,-5.84 -0.40299,-1.86915 -0.90521,-4.0854 -1.11606,-4.92501 -0.21085,-0.83961 -0.77666,-3.46761 -1.25735,-5.84 -0.4807,-2.37239 -1.09244,-5.32144 -1.35943,-6.55344 -0.267,-1.232 -0.67436,-3.32 -0.90525,-4.64 -0.2309,-1.32 -0.59669,-3.264 -0.81288,-4.32 -0.54026,-2.63893 -2.19699,-12.41483 -2.94201,-17.36 -0.33808,-2.244 -0.79385,-5.232 -1.01283,-6.64 -0.21899,-1.408 -0.44474,-2.992 -0.50168,-3.52 -0.0569,-0.528 -0.34804,-2.724 -0.6469,-4.88 -1.02717,-7.41024 -1.24731,-9.76245 -1.25779,-13.44 -0.0107,-3.7417 0.20586,-5.49133 0.96881,-7.82856 1.17218,-3.59086 3.44578,-5.73865 6.88474,-6.50374 1.41567,-0.31496 2.4061,-0.29833 14.76783,0.24795 4.092,0.18084 11.53747,0.4321 16.54549,0.55838 5.87653,0.14817 9.14191,0.2885 9.20817,0.39571 0.0565,0.0914 0.19366,0.90506 0.30486,1.80819 0.11121,0.90314 0.5582,4.01807 0.99331,6.92207 6.09966,40.71017 17.46164,82.07879 34.10084,124.16 1.32224,3.344 2.79627,7.00899 3.27562,8.14443 0.93693,2.21928 0.9353,2.35209 -0.0283,2.30941 -0.264,-0.0117 -1.452,-0.0781 -2.64,-0.14765 z M 476.8,491.74368 c 0,-0.22898 -0.53373,-2.69498 -1.18606,-5.48 -1.97397,-8.42754 -4.8482,-22.521 -6.03529,-29.59331 -0.1966,-1.17129 -0.43422,-2.2302 -0.52805,-2.35313 -0.13376,-0.17524 -1.47453,-0.28296 -6.20878,-0.49886 -3.32099,-0.15145 -6.08469,-0.22884 -6.14154,-0.17199 -0.33519,0.33519 3.51872,21.61293 5.93103,32.74565 0.7602,3.50827 1.09369,4.76516 1.30544,4.92 0.15643,0.11438 0.61265,0.21386 1.01383,0.22108 0.40118,0.007 2.70942,0.14145 5.12942,0.2983 2.42,0.15684 4.922,0.29494 5.56,0.30688 1.14835,0.0215 1.16,0.0175 1.16,-0.39462 z M 610.18839,557.4 c -2.09838,-2.813 -12.90081,-21.20268 -16.18924,-27.56 -0.86487,-1.672 -2.19491,-4.156 -2.95563,-5.52 -1.65235,-2.96272 -7.37053,-14.42652 -8.93855,-17.92 -0.61222,-1.364 -1.62314,-3.54034 -2.24649,-4.83631 -0.62335,-1.29597 -1.53872,-3.34797 -2.03417,-4.56 -0.49545,-1.21203 -1.53428,-3.64369 -2.30851,-5.40369 -0.77423,-1.76 -1.91373,-4.532 -2.53223,-6.16 -0.6185,-1.628 -1.49448,-3.86 -1.94663,-4.96 -0.45215,-1.1 -1.38205,-3.584 -2.06644,-5.52 -0.6844,-1.936 -1.68274,-4.744 -2.21854,-6.24 -3.67695,-10.26635 -7.83566,-24.87409 -10.68163,-37.52 -1.75053,-7.77833 -2.18967,-10.11102 -1.94729,-10.34387 0.10833,-0.10407 1.70896,-0.37803 3.55696,-0.60879 1.848,-0.23076 5.58002,-0.78221 8.29338,-1.22544 2.71336,-0.44323 5.02523,-0.77062 5.1375,-0.72754 0.1143,0.0439 0.32601,0.73557 0.48115,1.57198 0.52997,2.85746 2.99829,13.04505 4.35478,17.97366 2.81035,10.21099 6.35556,20.85546 10.1567,30.49541 1.13107,2.86847 2.05649,5.25935 2.05649,5.31306 0,0.0537 0.8706,2.06277 1.93467,4.46459 1.06407,2.40182 2.13788,4.87094 2.38626,5.48694 0.24837,0.616 1.29242,2.848 2.32011,4.96 1.02769,2.112 2.15214,4.46654 2.49878,5.23231 0.34663,0.76577 1.49973,3.03377 2.56242,5.04 1.0627,2.00623 2.34979,4.47569 2.8602,5.48769 1.62686,3.22559 8.0387,14.40082 8.50582,14.82484 0.24202,0.21969 0.44548,0.18174 2.08,-0.38795 4.81044,-1.67664 13.05454,-5.16131 18.39846,-7.77679 1.73069,-0.84706 3.29124,-1.5401 3.46788,-1.5401 0.23276,0 0.88343,0.7817 2.36392,2.84 4.14137,5.75764 13.26755,17.11764 18.173,22.6212 0.59866,0.67165 1.08848,1.29629 1.08848,1.38807 0,0.0918 -0.918,0.72484 -2.04,1.40681 -1.122,0.68197 -2.652,1.63682 -3.4,2.1219 -2.28813,1.48385 -8.48859,4.8764 -13.04,7.13478 -5.19777,2.5791 -9.69855,4.56528 -14.96,6.6018 -3.68586,1.42666 -12.16035,4.36544 -12.58852,4.36544 -0.10736,0 -0.36975,-0.234 -0.58309,-0.52 z M 422.08,556.22777 c -1.892,-0.2982 -7.004,-1.04524 -11.36,-1.6601 -4.356,-0.61485 -9.9,-1.40206 -12.32,-1.74936 -2.42,-0.34729 -7.388,-1.0379 -11.04,-1.53468 -3.652,-0.49678 -6.74478,-0.95864 -6.87284,-1.02636 -0.28008,-0.14809 -0.30688,-0.24892 -1.9186,-7.21727 -2.55149,-11.03157 -4.80865,-22.44713 -6.64359,-33.6 -0.82941,-5.04119 -3.63152,-24.93141 -3.83191,-27.2 -0.10546,-1.19402 -1.23366,-12.27729 -1.68568,-16.56 -0.16719,-1.584 -0.34994,-3.636 -0.40613,-4.56 -0.0562,-0.924 -0.27496,-4.02 -0.48617,-6.88 -0.73361,-9.93389 -0.88295,-12.45768 -1.35771,-22.94479 -0.55714,-12.30686 -0.58042,-13.66571 -0.23644,-13.79771 0.13252,-0.0509 5.98252,0.31487 13,0.81271 7.01749,0.49785 15.31507,1.08088 18.43907,1.29563 7.67483,0.52758 8.89038,0.65799 10.51148,1.12777 4.49133,1.30153 7.73756,4.6906 9.64212,10.06639 1.15632,3.26379 1.97332,7.59716 2.56412,13.6 0.40217,4.08633 1.4003,12.97136 1.59893,14.23319 0.0837,0.53175 0.37397,2.73081 0.64503,4.88681 0.27106,2.156 0.63819,4.784 0.81584,5.84 0.41869,2.48885 0.56838,6.81851 0.31252,9.04 -0.3844,3.33771 -1.56997,5.69291 -3.63281,7.21682 -0.47148,0.3483 -0.85696,0.721 -0.85664,0.82823 3.3e-4,0.10722 0.45625,0.43055 1.01317,0.7185 1.30416,0.67431 2.88397,1.98297 3.7471,3.10397 2.62931,3.41483 4.17006,7.68216 5.79588,16.05248 0.4615,2.376 1.25762,6.156 1.76916,8.4 0.51154,2.244 1.01058,4.512 1.10897,5.04 0.18769,1.00712 2.23248,9.48068 3.47494,14.4 1.25357,4.96333 1.47108,6.19445 1.6537,9.36 0.34387,5.96044 -0.38365,8.80055 -2.82618,11.03288 -1.61909,1.47976 -3.80901,2.26554 -6.21733,2.23089 -0.528,-0.008 -2.508,-0.25779 -4.4,-0.556 z m -13.09232,-33.51081 c 0.0299,-0.0897 -0.53586,-3.13167 -1.25723,-6.76 -0.72137,-3.62833 -1.64477,-8.54096 -2.05202,-10.91696 -0.40724,-2.376 -0.79965,-4.38056 -0.87202,-4.45459 -0.0724,-0.074 -2.78511,-0.37775 -6.02831,-0.67496 -4.62951,-0.42426 -5.93702,-0.49849 -6.08417,-0.34542 -0.22406,0.23306 0.74489,7.22745 1.52676,11.02099 0.26595,1.29031 0.70604,3.63031 0.97799,5.2 0.79772,4.60448 0.99836,5.3805 1.4515,5.61407 0.2144,0.11051 2.87382,0.48081 5.90982,0.82289 6.29857,0.7097 6.35435,0.71398 6.42768,0.49398 z m -8.79281,-53.30158 c 0.0339,-0.10154 -0.0618,-1.16354 -0.21265,-2.36 -0.1508,-1.19646 -0.61151,-5.55938 -1.0238,-9.69538 -0.81194,-8.14534 -0.76144,-7.91656 -1.749,-7.92338 -0.26918,-0.002 -2.75742,-0.17635 -5.52942,-0.38776 -3.07479,-0.23451 -5.09909,-0.32696 -5.19153,-0.2371 -0.17022,0.16547 1.05154,14.87948 1.48699,17.90824 l 0.26454,1.84 0.72,0.12929 c 0.71816,0.12897 9.2417,0.85109 10.50667,0.89013 0.37862,0.0117 0.69325,-0.0592 0.7282,-0.16404 z m -144.52669,82.63354 c -0.21333,-0.56112 -2.30059,-7.36559 -3.32788,-10.84892 -3.57537,-12.12338 -7.05372,-27.6007 -9.22328,-41.04 -3.52163,-21.81465 -5.05736,-42.33796 -5.35174,-71.52 -0.0715,-7.084 -0.0839,-13.528 -0.0276,-14.32 l 0.10232,-1.44 4.86634,-0.11327 c 2.67648,-0.0623 7.96848,-0.0623 11.76,0 l 6.89366,0.11327 0.10061,13.36 c 0.10337,13.7259 0.5536,29.52342 1.01917,35.76 0.13139,1.76 0.34859,4.856 0.48266,6.88 0.30625,4.62307 0.84067,11.1438 1.04248,12.72 0.0845,0.66 0.58344,4.764 1.10873,9.12 1.02336,8.4862 1.32974,10.61834 2.56351,17.84 2.18887,12.81216 5.41349,26.83451 9.07477,39.46194 0.0418,0.14407 -0.006,0.31256 -0.10603,0.37441 -0.10009,0.0619 -1.80548,0.36019 -3.78976,0.66295 -4.08708,0.6236 -9.31786,1.66537 -13.61131,2.71084 -1.60335,0.39042 -3.02713,0.70986 -3.16396,0.70986 -0.13684,0 -0.32254,-0.19399 -0.41269,-0.43108 z M 353.92,547.51425 c -2.508,-0.24828 -6.432,-0.57262 -8.72,-0.72074 -2.288,-0.14812 -4.24794,-0.34036 -4.35543,-0.4272 -0.10748,-0.0869 -0.87272,-1.32079 -1.70053,-2.7421 -0.8278,-1.42132 -2.47366,-4.24021 -3.65745,-6.26421 -8.13465,-13.90828 -16.85274,-30.05883 -23.51374,-43.56 -2.18166,-4.422 -4.04005,-8.04 -4.12975,-8.04 -0.0897,0 -0.1631,0.13315 -0.1631,0.29589 0,0.92833 1.72832,15.41721 2.33133,19.54411 1.79231,12.26619 4.82064,27.88456 7.35813,37.949 0.2148,0.85194 0.39054,1.6525 0.39054,1.779 0,0.19125 -0.69426,0.24829 -4.12,0.33847 -8.73655,0.23 -14.58016,0.43418 -16.04,0.56045 -0.836,0.0723 -1.60233,0.10008 -1.70296,0.0617 -0.39432,-0.1504 -3.00078,-10.73382 -5.09515,-20.68863 -2.75008,-13.07143 -4.40626,-24.18762 -6.63892,-44.56 -0.55741,-5.08621 -1.60339,-21.88337 -1.93788,-31.12 -0.4445,-12.27436 -0.62587,-36.54407 -0.27411,-36.67905 0.12705,-0.0487 4.11405,0.0459 8.86001,0.21027 4.74596,0.1644 9.02925,0.30113 9.51843,0.30385 0.48918,0.003 1.01135,0.0949 1.16037,0.20493 0.14903,0.11 0.87499,1.784 1.61325,3.72 3.27154,8.57922 8.78043,22.33326 11.53523,28.8 1.64944,3.872 3.59592,8.45118 4.3255,10.17595 1.20045,2.83798 1.88437,4.36243 5.0717,11.30485 0.53552,1.16644 1.07062,2.20126 1.1891,2.29959 0.29538,0.24515 0.28838,0.0169 -0.17977,-5.8596 -0.21737,-2.72843 -0.54298,-8.41679 -0.72359,-12.64079 -0.18061,-4.224 -0.39523,-9.228 -0.47694,-11.12 -0.0817,-1.892 -0.23666,-8.39599 -0.34433,-14.45331 -0.16895,-9.50525 -0.16455,-11.03393 0.0322,-11.16392 0.12535,-0.0828 0.80391,-0.11167 1.50791,-0.0641 0.704,0.0476 5.096,0.30167 9.76,0.56459 4.664,0.26293 8.876,0.53175 9.36,0.59738 l 0.88,0.11933 0.0333,1.36 c 0.0183,0.748 0.11141,3.592 0.2069,6.32 0.0955,2.728 0.27808,8.2 0.40574,12.16 0.12766,3.96 0.33564,8.748 0.46217,10.64 0.12653,1.892 0.34819,5.708 0.49258,8.48 0.14438,2.772 0.57994,8.64 0.9679,13.04 0.38796,4.4 0.81979,9.404 0.95963,11.12 0.13983,1.716 0.49576,4.92 0.79096,7.12 0.29519,2.2 0.8359,6.556 1.20157,9.68 1.41221,12.06472 4.74247,31.00616 7.94701,45.2 0.75498,3.344 1.38159,6.188 1.39247,6.32 0.0301,0.3648 -0.87426,0.33973 -5.98021,-0.16575 z M 535.27829,415.53702 c 0.10064,-1.00208 0.24514,-1.34348 1.56194,-3.69016 1.17829,-2.09985 1.61164,-2.72312 2.30541,-3.31583 1.34306,-1.14741 1.33992,-1.14994 -1.93899,-1.56742 -1.05235,-0.13399 -2.19146,-0.24361 -2.53136,-0.24361 -0.53463,0 -6.05742,1.56623 -6.64765,1.88523 -0.39082,0.21123 -0.23528,0.4178 0.80444,1.06838 0.63906,0.39988 1.7774,1.42468 2.98487,2.68718 1.63409,1.70855 2.04169,2.23794 2.5037,3.25176 0.30353,0.66603 0.61821,1.16996 0.6993,1.11984 0.0811,-0.0501 0.19735,-0.58803 0.25834,-1.19537 z M 426.16364,409.3477 c 1.7562,-1.00839 2.1198,-1.2776 1.95208,-1.44532 -0.042,-0.042 -1.54319,-0.17481 -3.33603,-0.29517 -2.49429,-0.16746 -3.6166,-0.316 -4.77969,-0.63262 -1.72531,-0.46967 -1.76,-0.4746 -1.76,-0.25015 0,0.25864 5.3175,3.66975 5.72548,3.67281 0.20101,0.002 1.19019,-0.47079 2.19816,-1.04955 z M 473.6,405.74995 c 0.20154,-0.13867 0.16307,-0.22068 -0.24,-0.5117 -0.6812,-0.49182 -2.67389,-2.54092 -4.06505,-4.18013 l -1.18505,-1.39635 -1.32015,-3.98434 -1.32015,-3.98434 -0.18387,-3.80654 c -0.10112,-2.0936 -0.23865,-5.19381 -0.30561,-6.88936 -0.0684,-1.73272 -0.19404,-3.15511 -0.28683,-3.2479 -0.14393,-0.14393 -2.86522,0.20627 -4.51529,0.58108 l -0.38201,0.0868 0.10753,3.95143 c 0.0591,2.17329 0.17985,5.11628 0.26825,6.54 l 0.16072,2.58856 -0.80625,3.81144 c -0.44344,2.09628 -0.90781,4.02743 -1.03195,4.29143 -0.45555,0.96885 -3.39698,4.47103 -4.07364,4.85024 -0.63588,0.35635 -0.79523,0.56956 -0.54065,0.72338 0.15705,0.0949 8.63144,0.43272 14.52,0.57884 2.552,0.0633 4.712,0.12583 4.8,0.13889 0.088,0.0131 0.268,-0.0506 0.4,-0.1414 z m 38.72,-0.53765 c 3.212,-0.1314 7.748,-0.35918 10.08,-0.5062 l 4.24,-0.2673 3.2,-0.95133 c 1.76,-0.52324 3.32922,-1.06804 3.48715,-1.21068 0.24435,-0.22068 0.39058,-0.23167 0.98101,-0.0738 0.38162,0.10207 2.14365,0.36978 3.91563,0.59491 l 3.22178,0.40933 2.91722,-0.33211 c 9.73183,-1.10791 22.88181,-3.08585 29.22684,-4.39612 2.95911,-0.61107 3.67987,-0.86837 7.93745,-2.8335 3.63833,-1.67931 4.01979,-1.97324 7.4458,-5.73723 1.79195,-1.96873 2.10303,-2.44608 3.97882,-6.10543 1.68821,-3.29342 2.23297,-4.77976 2.73772,-7.46963 0.67273,-3.58515 1.60474,-10.36587 1.74505,-12.69604 0.0807,-1.34047 0.14122,-7.36921 0.13444,-13.39721 -0.0122,-10.87772 0.13246,-16.88471 0.59933,-24.88 1.31315,-22.48849 3.85161,-42.57431 9.26415,-73.3036 1.04108,-5.91063 1.11862,-6.85341 1.12328,-13.6564 0.006,-8.10765 -0.01,-8.18003 -2.26231,-10.5133 -1.53993,-1.5953 -1.68371,-1.63408 -4.74546,-1.27972 -2.56524,0.29689 -3.04989,0.48528 -6.3987,2.4872 -1.16006,0.69348 -2.86555,1.66963 -3.78997,2.16922 -0.92442,0.49959 -2.54442,1.52964 -3.6,2.289 -11.36045,8.17251 -21.94127,14.28283 -33.51923,19.35703 -1.892,0.82919 -4.448,2.06866 -5.68,2.75437 -1.232,0.68572 -2.888,1.58992 -3.68,2.00934 -0.792,0.41942 -1.57107,0.87829 -1.73127,1.01972 -0.18196,0.16064 -0.63229,0.2693 -1.2,0.28955 -2.00816,0.0716 -6.90545,0.86178 -9.30363,1.50106 -5.75271,1.53349 -11.12023,2.6418 -17.7651,3.66821 -5.2116,0.80502 -12.58324,1.431 -18.88,1.60324 -4.12899,0.11294 -4.5971,0.1572 -7.6,0.71852 -2.68831,0.50251 -3.54337,0.73591 -5.3474,1.45959 -1.18107,0.47378 -2.42145,1.05135 -2.75641,1.28347 l -0.60902,0.42205 -1.64358,-0.9712 c -2.34299,-1.38449 -3.14792,-1.71719 -5.82603,-2.4081 -1.30766,-0.33735 -3.49356,-0.94133 -4.85756,-1.34218 -2.4213,-0.71157 -4.97643,-1.16504 -8.8,-1.56177 -0.924,-0.0959 -3.372,-0.49166 -5.44,-0.87953 -2.068,-0.38786 -5.452,-0.99433 -7.52,-1.34769 -2.068,-0.35337 -5.308,-1.00653 -7.2,-1.45147 -1.892,-0.44494 -5.24,-1.19809 -7.44,-1.67367 -2.2,-0.47558 -4.684,-1.04542 -5.52,-1.26631 -1.55168,-0.41 -3.02069,-0.6019 -6.92577,-0.90473 l -2.20577,-0.17106 -2.27423,0.66039 c -1.45795,0.42336 -2.51333,0.8288 -2.94039,1.12958 -0.36638,0.25806 -0.70343,0.46919 -0.74899,0.46919 -0.0456,0 -1.25713,-0.96908 -2.69238,-2.15352 -3.04751,-2.51494 -3.68752,-2.90122 -8.46513,-5.10918 -1.97304,-0.91184 -4.27134,-1.98275 -5.10734,-2.3798 -1.52338,-0.72352 -5.36975,-2.01083 -10.16,-3.40037 -1.408,-0.40842 -4.936,-1.52383 -7.84,-2.47869 -2.904,-0.95485 -6.72,-2.17091 -8.48,-2.70236 -1.76,-0.53144 -4.928,-1.54742 -7.04,-2.25773 -5.76367,-1.93845 -10.77219,-3.46877 -11.76,-3.59319 -0.484,-0.061 -2.39144,-0.32554 -4.23875,-0.58795 -2.97073,-0.42199 -3.44206,-0.45337 -4.08,-0.27166 -0.92783,0.26428 -1.04147,0.23234 -1.91293,-0.53761 -0.46769,-0.41321 -2.3315,-1.44614 -5.20832,-2.88645 -5.10499,-2.55587 -5.4233,-2.66955 -18.72467,-6.68747 -11.69938,-3.53401 -13.22618,-3.98317 -21.75533,-6.39997 -13.25377,-3.75556 -12.62277,-3.6207 -18.77372,-4.01254 -7.58212,-0.48302 -8.22205,-0.41141 -11.86628,1.3278 l -2,0.9545 -0.88,-0.95387 c -0.484,-0.52463 -1.528,-1.44316 -2.32,-2.04118 -0.792,-0.59802 -2.17726,-1.65428 -3.07835,-2.34725 -1.76477,-1.35715 -1.85086,-1.39841 -8.68165,-4.16096 -2.23028,-0.90198 -4.14789,-1.57018 -5.04,-1.7562 -6.66779,-1.39037 -19.03997,-3.67224 -23.26762,-4.29138 -2.08182,-0.30489 -2.55149,-0.32154 -4.8,-0.17016 -1.37081,0.0923 -3.28438,0.21138 -4.25238,0.26465 l -1.76,0.0968 -4.74167,-1.59561 -4.74167,-1.59561 -3.41833,-0.41536 c -7.41031,-0.90044 -16.31144,-1.79499 -22.37833,-2.24899 -3.55591,-0.2661 -3.12093,-0.29432 -8.58096,0.55667 l -2.26096,0.35239 -3.65904,-0.88407 c -2.01247,-0.48624 -4.05504,-0.96043 -4.53904,-1.05376 -1.48809,-0.28696 -10.62452,-0.50304 -21.20372,-0.50146 l -10.08373,10e-4 -5.59627,1.36237 c -3.85392,0.9382 -5.74572,1.47041 -6.07628,1.7094 -0.85367,0.61721 -4.6296,3.76507 -4.98087,4.15239 -0.18747,0.20671 -0.93113,1.65517 -1.65256,3.21879 l -1.31169,2.84296 0.24518,2.35704 c 0.13485,1.29638 0.32944,3.43705 0.43242,4.75705 0.16898,2.16596 0.24935,2.56383 0.8242,4.08 4.8983,12.91946 9.75398,28.39466 13.24369,42.2081 1.31026,5.18642 3.61684,15.70705 4.56727,20.8319 0.48144,2.596 1.09066,5.872 1.35382,7.28 0.26317,1.408 0.8428,5.044 1.28808,8.08 1.11444,7.59851 1.69769,11.50322 1.97169,13.2 0.59665,3.69476 2.07094,10.60549 3.15733,14.8 0.44446,1.716 0.94869,3.696 1.12052,4.4 1.14998,4.71141 3.54617,11.89333 7.0999,21.28 0.76628,2.024 1.77431,4.688 2.24007,5.92 2.85397,7.54905 6.55543,15.96752 11.51348,26.18588 l 3.00145,6.18588 2.13804,1.97412 2.13804,1.97412 2.83373,1.32485 2.83373,1.32484 4.73124,0.56216 c 4.67452,0.55541 4.76865,0.56014 7.85124,0.39452 1.716,-0.0922 6.936,-0.30937 11.6,-0.48261 11.22935,-0.4171 10.79402,-0.38468 14,-1.04255 1.54,-0.316 3.052,-0.57857 3.36,-0.58349 0.308,-0.005 2.036,0.21879 3.84,0.49712 1.804,0.27833 3.48276,0.4662 3.73057,0.41749 0.24781,-0.0487 5.51407,-0.0917 11.7028,-0.0956 l 11.25223,-0.007 4.557,-0.77509 4.557,-0.77509 2.7002,-1.40945 c 2.62674,-1.3711 2.74871,-1.45761 4.48323,-3.17976 1.75238,-1.73988 1.80398,-1.81228 3.00101,-4.21032 0.66988,-1.342 1.28646,-2.44 1.37019,-2.44 0.0837,0 0.30507,0.522 0.49188,1.16 1.20535,4.11651 0.96894,3.64947 2.90555,5.74002 1.459,1.57497 2.01056,2.04735 3.22422,2.76135 3.35889,1.97606 3.22104,1.92461 7.78412,2.90511 l 4.24,0.91108 4.16,0.14104 c 2.288,0.0776 7.364,0.28685 11.28,0.46506 l 7.12,0.32401 3.67849,-0.47354 3.67849,-0.47354 3.68151,0.85738 c 3.46007,0.8058 3.8788,0.86791 6.96151,1.03259 1.804,0.0964 6.653,0.38526 10.77556,0.64197 l 7.49555,0.46674 3.88428,-0.46192 c 3.05876,-0.36374 4.04333,-0.53919 4.63264,-0.8255 l 0.74836,-0.36358 0.79106,0.44467 c 0.48991,0.27539 2.27344,0.8354 4.68496,1.47102 l 3.89391,1.02634 6.70684,0.48129 c 3.68876,0.2647 8.36284,0.60247 10.38684,0.75059 3.62009,0.26493 3.72703,0.26379 6.56902,-0.0697 l 2.88902,-0.33897 2.95098,0.77838 c 3.2749,0.86383 1.79968,0.70462 16.33865,1.76326 l 6.50767,0.47385 3.68728,-0.46684 c 2.92554,-0.37039 3.81343,-0.53944 4.2979,-0.81826 l 0.61062,-0.35143 0.713,0.4501 c 0.49304,0.31124 1.82404,0.74105 4.31443,1.39321 4.06391,1.06422 3.24261,0.9773 16.48296,1.7444 l 6.32153,0.36625 3.43314,-0.52705 c 1.88823,-0.28989 3.65154,-0.63858 3.91847,-0.77489 1.3671,-0.69809 3.41444,-1.9921 3.7842,-2.39177 0.23039,-0.24902 0.88048,-1.06476 1.44466,-1.81276 l 1.02579,-1.36 0.61275,-2.86583 0.61275,-2.86582 -0.18836,-5.13418 c -0.1036,-2.82379 -0.20144,-6.71817 -0.21741,-8.65417 l -0.0291,-3.52 2.16,-0.0177 c 2.75548,-0.0226 8.88106,-0.94966 11.17866,-1.69176 0.75974,-0.24539 1.04842,-0.28086 1.13576,-0.13954 0.0644,0.10421 0.16072,2.00288 0.21403,4.21925 0.11103,4.6164 0.38139,10.89446 0.58007,13.46978 0.11418,1.48006 0.28495,2.22793 1.07363,4.70195 l 0.93785,2.94195 1.6329,1.88044 c 1.49888,1.72609 1.80239,1.98688 3.69782,3.17727 l 2.06492,1.29684 3.18218,0.71509 3.18218,0.71509 10.24,-0.0687 c 5.632,-0.0378 12.868,-0.17622 16.08,-0.30761 z m -26.91835,-13.24146 c -0.1117,-0.29108 -0.36236,-4.01604 -0.70327,-10.45084 -0.17538,-3.31042 -0.27857,-9.09497 -0.3325,-18.64 -0.0689,-12.19302 -0.0376,-14.89673 0.26322,-22.72 0.63111,-16.41449 1.8749,-31.45007 4.01703,-48.56 0.77414,-6.18335 1.94165,-14.22541 2.09277,-14.41544 0.0896,-0.11265 1.52839,-0.21607 4.02031,-0.28898 3.4548,-0.10109 10.66811,-0.59577 15.30105,-1.04935 0.91314,-0.0894 3.25314,-0.41786 5.2,-0.72992 9.71123,-1.5566 9.55381,-1.52704 14.952,-2.80822 2.35178,-0.55817 2.42774,-0.56234 2.42774,-0.13342 0,0.18407 -0.39429,2.4005 -0.87619,4.92539 -0.87908,4.60581 -2.51339,14.30127 -3.06224,18.1666 -0.17943,1.26363 -0.38829,2.17199 -0.53751,2.33773 -0.39249,0.43591 -6.75072,1.52483 -14.84448,2.54227 -3.98222,0.50059 -7.31063,0.98039 -7.39645,1.06621 -0.18264,0.18264 -1.32344,9.38467 -1.69193,13.64764 -0.17319,2.0036 -0.20205,2.99264 -0.0906,3.10412 0.25911,0.25911 13.08752,-1.09605 18.65044,-1.97019 1.82459,-0.28671 3.08913,-0.41824 3.17692,-0.33045 0.0878,0.0878 0.0432,1.18675 -0.11211,2.76093 -0.60265,6.10931 -0.91684,10.56651 -1.30653,18.53508 -0.14417,2.948 -0.32593,5.42758 -0.40392,5.51018 -0.26782,0.28367 -8.91994,1.14402 -16.93324,1.68381 -2.87959,0.19397 -4.74953,0.38463 -4.81525,0.49095 -0.30044,0.48613 -0.46323,18.55631 -0.17132,19.01727 0.11983,0.18923 0.84965,0.18207 4.91755,-0.0483 5.68198,-0.32174 10.19463,-0.64153 13.85808,-0.98205 1.47468,-0.13708 2.75268,-0.20508 2.84,-0.15112 0.0923,0.057 0.15997,1.01567 0.16165,2.28867 0.006,4.67067 0.63701,17.70402 1.14205,23.59557 0.12119,1.41369 0.13372,2.26032 0.0349,2.35911 -0.4587,0.4587 -17.68434,1.24924 -30.153,1.38383 -8.39023,0.0906 -9.54417,0.0741 -9.62523,-0.13711 z M 439.04,390.77137 c -0.22,-0.0189 -4.31416,-0.27023 -9.09814,-0.5585 -4.80135,-0.28931 -8.79872,-0.59776 -8.92265,-0.68849 -0.18412,-0.13481 -0.25505,-1.71857 -0.39433,-8.80438 -0.3324,-16.91174 -0.0926,-46.78398 0.49512,-61.68 0.0885,-2.244 0.26783,-7.14 0.39843,-10.88 0.13061,-3.74 0.38106,-10.004 0.55656,-13.92 0.1755,-3.916 0.39243,-8.812 0.48206,-10.88 0.35822,-8.26512 0.69524,-14.32669 0.80337,-14.44922 0.0627,-0.0711 0.71325,0.0238 1.44565,0.21077 1.25983,0.32166 13.18034,2.70309 16.79393,3.35501 0.924,0.1667 3.156,0.5294 4.96,0.80599 1.804,0.2766 4.54,0.70876 6.08,0.96037 1.54,0.2516 4.492,0.64456 6.56,0.87324 6.20136,0.68574 8.28818,1.40643 10.61196,3.66489 3.16129,3.07243 3.97898,8.07352 2.93306,17.93895 -1.22731,11.57643 -2.44381,28.59913 -2.8185,39.44 -0.32773,9.48232 -0.38585,10.3126 -0.96313,13.76 -0.65562,3.91526 -1.77328,6.63882 -3.48225,8.48571 -1.2266,1.32558 -2.14532,1.92689 -3.7791,2.47344 -2.1452,0.71763 -4.80571,0.70498 -16.9488,-0.0806 -2.79772,-0.181 -5.15572,-0.28646 -5.24,-0.23437 -0.0914,0.0565 -0.15193,1.7546 -0.14999,4.20526 0.004,4.83722 0.41708,22.53806 0.57261,24.52622 0.11766,1.50422 0.0839,1.5599 -0.89586,1.47571 z m 12.54288,-56.94446 c 0.0534,-0.13919 0.0974,-0.91319 0.0978,-1.72 10e-4,-2.1779 0.88374,-18.48437 1.38095,-25.51141 0.27637,-3.90592 0.3778,-6.18004 0.28,-6.27784 -0.22885,-0.22885 -11.29103,-1.63076 -11.69181,-1.4817 -0.10459,0.0389 -0.22969,0.44272 -0.27801,0.89738 -0.29162,2.74406 -1.53184,28.37754 -1.53184,31.66076 0,1.2466 0.0564,1.7547 0.2,1.80249 0.33208,0.11049 9.07505,0.84405 10.30288,0.86443 0.90649,0.0151 1.16297,-0.0334 1.24,-0.23411 z m 88.20744,55.50215 c -0.28479,-0.4608 -0.99,-10.91365 -1.29325,-19.16906 -0.35351,-9.62345 -0.11806,-26.22359 0.5265,-37.12 1.1846,-20.0262 3.91792,-40.76149 8.06666,-61.19479 l 0.98977,-4.8748 1.04,-0.3906 c 11.18351,-4.20027 21.78753,-9.50079 32.90205,-16.44641 4.49593,-2.80956 5.75853,-3.47715 7.11395,-3.76145 1.13239,-0.23753 1.93874,-0.0721 2.63685,0.54079 1.27357,1.11822 1.59167,2.43855 1.57258,6.52726 -0.0156,3.33088 -0.27935,5.67689 -1.1874,10.56 -3.10293,16.68635 -5.79646,36.32815 -7.10895,51.84 -1.2652,14.95289 -1.61016,23.95627 -1.4866,38.8 0.0461,5.544 0.0186,11.232 -0.0613,12.64 -0.48981,8.63719 -2.89211,13.87072 -7.37603,16.06907 -1.54193,0.75597 -4.20452,1.35242 -12.44517,2.78786 -6.47357,1.12764 -9.11405,1.53355 -15.68,2.41041 -6.09315,0.81373 -8.07337,1.00228 -8.20968,0.78172 z m 19.17153,-32.20542 c 4.08291,-0.83553 6.63327,-1.41314 7.07815,-1.60308 0.35983,-0.15363 0.36,-0.1556 0.3655,-4.27713 0.0238,-17.84722 1.7296,-38.83105 4.89242,-60.18395 0.49038,-3.31071 0.93044,-6.28948 0.97791,-6.61948 0.0523,-0.36355 0.0208,-0.6 -0.0799,-0.6 -0.0914,0 -0.65886,0.22403 -1.26107,0.49785 -0.6022,0.27382 -2.85891,1.237 -5.01491,2.14039 -5.14823,2.15718 -4.78014,1.96507 -4.87883,2.54623 -0.72836,4.28926 -2.10495,14.17191 -2.55402,18.33553 -0.31795,2.948 -0.7905,7.304 -1.0501,9.68 -0.54773,5.01314 -0.63192,6.15827 -1.26459,17.2 -0.3511,6.12754 -0.49013,10.14737 -0.54232,15.68 -0.0652,6.90582 -0.0474,7.84 0.14928,7.84 0.04,0 1.47211,-0.28636 3.18243,-0.63636 z M 399.12,388.06555 c -13.89332,-1.11164 -14.88702,-1.20521 -15.10466,-1.42225 -0.19048,-0.18996 -0.227,-3.45736 -0.24,-21.47149 -0.0135,-18.75438 -0.0435,-21.25208 -0.25534,-21.28703 -1.38641,-0.22874 -10.07499,-1.17074 -10.45652,-1.13369 L 372.56,342.8 l -0.10871,7.84 c -0.0598,4.312 -0.1025,13.9451 -0.0949,21.4069 0.008,7.99625 -0.0462,13.62692 -0.13236,13.71307 -0.0882,0.0882 -1.25562,0.056 -2.94511,-0.0814 -1.5394,-0.12518 -6.03892,-0.48812 -9.99892,-0.80653 -6.07511,-0.48849 -7.23258,-0.62058 -7.40851,-0.84548 -0.16982,-0.21709 -0.18509,-2.68565 -0.0823,-13.30654 0.20813,-21.51234 0.16049,-78.18585 -0.073,-86.8 -0.31769,-11.72194 -0.66408,-21.52876 -0.99433,-28.15073 -0.16652,-3.3389 -0.26681,-6.1289 -0.22287,-6.2 0.0439,-0.0711 0.18127,-0.12927 0.30518,-0.12927 0.26226,0 9.72742,2.64666 12.31583,3.44376 0.968,0.2981 4.964,1.44201 8.88,2.54201 3.916,1.10001 7.984,2.24896 9.04,2.55322 1.056,0.30426 4.07671,1.13721 6.71269,1.85099 5.22278,1.41426 6.78225,2.01248 8.98354,3.44615 4.21041,2.74217 6.5817,6.78471 7.58482,12.93049 0.62288,3.81622 0.70004,6.75817 0.4217,16.07808 -0.14119,4.72742 -0.33269,11.9793 -0.42556,16.1153 -0.23762,10.58242 -0.49131,13.3521 -1.48465,16.20845 -0.92765,2.66743 -2.71353,4.87865 -4.81996,5.96788 -0.57827,0.29902 -1.0514,0.61567 -1.0514,0.70367 0,0.088 0.46598,0.40094 1.0355,0.69543 1.18798,0.61428 2.65658,2.08397 3.40477,3.40732 0.59478,1.052 1.26562,2.9027 1.55677,4.29476 0.56901,2.72063 0.59349,3.61735 0.67718,24.80249 0.0457,11.572 0.0924,21.652 0.10386,22.4 l 0.0207,1.36 -0.96,0.0216 c -0.528,0.0119 -2.184,-0.0763 -3.68,-0.19605 z m -15.05178,-73.32648 c 0.0479,-0.0775 0.15951,-5.92559 0.24801,-12.99572 0.12763,-10.19577 0.11984,-12.8934 -0.0377,-13.04152 -0.10921,-0.10271 -1.24257,-0.40672 -2.51857,-0.67557 -1.276,-0.26886 -3.436,-0.74497 -4.8,-1.05803 -1.364,-0.31306 -2.858,-0.61489 -3.32,-0.67074 l -0.84,-0.10155 -4.2e-4,9.98203 c -2.3e-4,5.49012 -0.0414,11.42203 -0.0915,13.18203 -0.0539,1.89373 -0.0299,3.28763 0.0589,3.41466 0.13901,0.1989 2.33999,0.63963 8.51302,1.70467 2.50833,0.43277 2.67186,0.448 2.78822,0.25974 z M 327.52,382.47346 c -2.596,-0.19941 -7.204,-0.52081 -10.24,-0.71424 -4.65689,-0.29669 -5.55283,-0.39293 -5.72994,-0.61545 -0.1541,-0.19362 -0.18687,-0.64675 -0.12322,-1.70377 0.0477,-0.792 0.12448,-6.408 0.17064,-12.48 0.0461,-6.072 0.12901,-13.46243 0.18413,-16.42318 0.0961,-5.16208 0.0879,-5.38964 -0.2007,-5.54036 -0.1655,-0.0865 -3.27308,-0.43025 -6.90573,-0.76401 -4.96384,-0.45605 -6.65037,-0.56126 -6.78816,-0.42347 -0.13283,0.13283 -0.21631,3.80974 -0.30302,13.34718 -0.14586,16.04256 -0.29412,23.13885 -0.48591,23.25738 -0.0797,0.0493 -2.03341,-0.0244 -4.34153,-0.16379 -2.30811,-0.13937 -7.29126,-0.39887 -11.07367,-0.57668 -3.78242,-0.17782 -6.93888,-0.38506 -7.01437,-0.46055 -0.0763,-0.0763 -0.0504,-5.63087 0.0584,-12.51488 0.21897,-13.85051 0.12893,-45.16287 -0.15385,-53.49764 -0.29283,-8.6309 -0.65342,-17.09344 -0.89652,-21.04 -0.12739,-2.068 -0.30678,-5.128 -0.39865,-6.8 -0.0919,-1.672 -0.30536,-4.696 -0.47443,-6.72 -0.16907,-2.024 -0.38671,-4.832 -0.48365,-6.24 -0.0969,-1.408 -0.24277,-3.172 -0.32407,-3.92 -0.0813,-0.748 -0.40307,-3.988 -0.71504,-7.2 -0.31198,-3.212 -0.67225,-6.776 -0.80061,-7.92 -0.70561,-6.28873 -0.33635,-13.19871 0.8786,-16.44126 0.88521,-2.36252 2.33338,-4.0432 4.36028,-5.06034 1.9486,-0.97785 3.5712,-1.18517 6.30254,-0.80527 2.80685,0.39039 21.35237,5.07634 37.25843,9.41418 10.14356,2.76631 10.6974,2.92378 11.05708,3.14382 0.3878,0.23724 0.33445,-0.25223 0.94501,8.67041 1.30729,19.10438 1.94483,37.2927 2.25873,64.43846 0.13843,11.97109 -0.23468,65.68377 -0.45818,65.96 -0.089,0.11 -0.31501,0.1901 -0.50223,0.178 -0.18723,-0.0121 -2.46441,-0.18514 -5.06041,-0.38454 z m -16.02636,-69.5617 c 0.1741,-0.20978 0.14593,-1.8178 -0.29486,-16.83176 -0.0956,-3.256 -0.27688,-7.9 -0.40287,-10.32 -0.12598,-2.42 -0.3035,-6.056 -0.3945,-8.08 -0.19544,-4.34739 -0.25642,-4.83863 -0.61435,-4.94901 -0.56074,-0.17293 -13.59782,-2.65099 -13.94686,-2.65099 -0.36053,0 -0.36522,0.0224 -0.25975,1.24 0.0956,1.10345 0.40876,6.33079 0.89056,14.86431 0.19095,3.38207 0.57974,12.86545 0.81233,19.81464 0.1172,3.50149 0.2234,5.01485 0.36132,5.14916 0.10855,0.1057 2.47021,0.48246 5.31534,0.84796 2.816,0.36177 5.768,0.75355 6.56,0.87062 0.792,0.11707 1.52118,0.22195 1.62041,0.23308 0.0992,0.0111 0.25818,-0.0735 0.35323,-0.18801 z M 170.8827,375.48 c -8.51194,-17.56874 -15.14574,-34.72063 -18.64223,-48.2 -0.31957,-1.232 -0.7155,-2.744 -0.87985,-3.36 -0.53192,-1.9938 -1.13389,-4.72805 -1.77887,-8.08 -1.43717,-7.46884 -1.64656,-8.75385 -2.15094,-13.2 -3.34115,-29.45274 -8.67115,-54.70067 -17.27698,-81.84 -0.73947,-2.332 -1.56282,-4.88417 -1.82966,-5.6715 -0.34007,-1.00338 -0.43472,-1.48189 -0.31647,-1.6 0.19721,-0.19698 28.4981,-0.23147 29.46738,-0.0359 0.59255,0.11955 0.59712,0.12669 1.07147,1.67374 1.18275,3.85735 4.08185,14.85357 5.53489,20.99367 3.36476,14.21849 6.40536,30.61915 8.23153,44.4 0.44313,3.344 0.84041,6.26 0.88284,6.48 0.0424,0.22 0.26147,2.2 0.48675,4.4 1.04783,10.23239 3.15878,21.88479 6.00003,33.12 1.57206,6.21642 2.3289,8.83989 4.09216,14.18479 1.13634,3.44452 1.49706,4.21408 1.81888,3.88043 0.45809,-0.47492 1.75201,-5.34805 2.77874,-10.46522 1.20691,-6.01511 1.52224,-8.36705 1.88776,-14.08 l 0.18938,-2.96 -0.65229,-4 c -0.35876,-2.2 -0.73191,-4.756 -0.82922,-5.68 -0.35737,-3.39331 -1.12236,-11.20008 -1.37185,-14 -0.14115,-1.584 -0.4301,-4.212 -0.64212,-5.84 -0.21202,-1.628 -0.60567,-4.832 -0.87479,-7.12 -0.26912,-2.288 -0.66961,-5.22895 -0.88998,-6.53544 -0.22036,-1.30649 -0.68232,-4.33313 -1.02657,-6.72585 -0.34425,-2.39273 -0.87918,-5.64378 -1.18873,-7.22456 -0.30956,-1.58078 -0.88939,-4.78215 -1.28851,-7.11415 -1.53517,-8.96972 -3.95528,-19.96042 -7.05471,-32.03841 -0.7408,-2.88676 -1.04524,-4.33109 -0.93596,-4.44037 0.18663,-0.18663 6.77558,0.2422 13.50522,0.87896 11.76789,1.1135 14.49079,1.39513 14.61095,1.51122 0.18984,0.1834 0.60048,1.87572 1.76857,7.2886 4.81612,22.31781 8.46289,46.82476 10.26163,68.96 0.3906,4.80671 0.6498,7.49051 0.7958,8.24 0.0429,0.22 0.18821,1.372 0.32301,2.56 0.62645,5.52078 2.21237,14.51097 3.82449,21.68 1.18539,5.2714 1.9428,8.14806 3.53869,13.44 1.18986,3.94556 1.29519,4.24 1.51686,4.24 0.45717,0 2.16335,-6.30502 3.60553,-13.32389 0.64292,-3.12896 1.3672,-7.99254 1.9912,-13.37105 0.30652,-2.642 0.64124,-9.7544 0.64122,-13.62506 -2e-5,-3.21643 -0.46089,-12.17673 -0.71596,-13.92 -0.0451,-0.308 -0.26459,-2.684 -0.48783,-5.28 -0.36889,-4.28974 -2.04978,-19.95266 -2.2236,-20.72 -0.0399,-0.176 -0.4004,-2.768 -0.8012,-5.76 -0.40079,-2.992 -0.87822,-6.34 -1.06095,-7.44 -0.18273,-1.1 -0.72096,-4.42533 -1.19606,-7.38962 -0.4751,-2.96429 -1.23135,-7.32029 -1.68054,-9.68 -0.79156,-4.15831 -2.05288,-10.69519 -2.42524,-12.56905 -0.10041,-0.50527 -0.13428,-0.96696 -0.0753,-1.02597 0.17097,-0.17096 2.79061,0.19919 12.18779,1.7221 10.82447,1.75423 14.32091,2.39671 14.32091,2.63154 0,0.0301 0.13971,0.79641 0.31047,1.70288 0.17076,0.90646 0.39177,2.22412 0.49113,2.92812 0.0994,0.704 0.56753,3.62 1.04035,6.48 0.47283,2.86 0.9388,5.812 1.03551,6.56 0.0967,0.748 0.52818,3.916 0.95883,7.04 0.43066,3.124 0.82377,6.04 0.87358,6.48 0.0498,0.44 0.41056,3.608 0.80164,7.04 1.3241,11.61984 2.35957,24.08569 3.13653,37.76 0.54112,9.52363 0.33257,15.85586 -0.81942,24.88 -1.65582,12.97087 -5.90349,27.16976 -12.70809,42.48 -2.28631,5.14414 -5.25988,11.21113 -5.53669,11.29651 -0.12311,0.038 -5.62292,0.0318 -12.2218,-0.0137 L 211.28409,378 l -0.21824,-0.45556 c -0.43144,-0.90064 -3.20665,-8.41739 -4.40993,-11.94444 -1.34529,-3.94333 -1.62032,-4.64 -1.83175,-4.64 -0.0776,0 -0.73592,1.746 -1.46304,3.88 -1.45943,4.28326 -2.84401,7.91242 -4.24687,11.13156 -0.7034,1.61409 -1.00091,2.13127 -1.25779,2.1865 -0.18506,0.0398 -3.86447,0.14984 -8.17647,0.24455 -4.312,0.0947 -9.46,0.23966 -11.44,0.32208 -1.98,0.0824 -4.07476,0.15108 -4.65501,0.15258 l -1.05502,0.003 z m 87.22055,18.04112 c 0.0123,-0.0874 -0.32984,-0.3635 -0.76041,-0.61359 -0.43056,-0.25009 -1.07357,-0.73659 -1.4289,-1.08112 -0.35533,-0.34452 -0.75586,-0.62641 -0.89006,-0.62641 -0.13421,0 -0.45371,0.21888 -0.71001,0.4864 -0.2563,0.26752 -0.91777,0.73904 -1.46993,1.04783 -0.55217,0.30879 -1.00394,0.62614 -1.00394,0.70524 0,0.19151 1.19781,0.26801 3.96041,0.25296 1.37819,-0.008 2.28928,-0.0753 2.30284,-0.17131 z"
         id="path2" />
    </g>
  </g>
</svg>
